<?xml version="1.0" encoding="utf-8" ?>
<svg class="ilustration-1" xmlns="http://www.w3.org/2000/svg" xmlns:xlink="http://www.w3.org/1999/xlink" width="1024" height="1024">
	<style>
		.ilustration-1 .color1{
			fill: whitesmoke;
		}

		.ilustration-1 .color2{
			fill: #121212;
		}

		.ilustration-1 .color3{
			fill: #1E9CDE;
		}

		.ilustration-1 .color4{
			fill: #1E9CDE;
		}

		.ilustration-1 .color5{
			fill: #E0E5F4;
		}

		.ilustration-1 .color6{
			fill: #A8A9F9;
		}

		.ilustration-1 .color7{
			fill: #5C54A4
		}
	</style>
	<rect class="color1" x="50" y="500" width="180" height="330" rx="20" ry="20" />
	<path class="color2"
		d="M66.4905 573.558L67.9452 574.455C69.06 594.388 68.4137 614.712 68.4716 634.689L68.4606 756.638C68.4836 771.763 67.7815 787.606 68.513 802.633C68.5943 804.304 68.7871 805.698 69.5283 807.202C71.9688 808.593 183.241 807.763 196.021 807.755C196.732 803.608 196.398 798.851 196.426 794.642L196.465 768.23C196.468 739.705 196.69 711.156 196.362 682.633L196.397 675.111L122.453 675.09C114.075 675.091 98.1181 676.034 90.5209 674.915C89.8767 674.82 90.1622 674.944 89.6928 674.3L90.3276 673.52C94.5677 672.212 113.915 673.056 120.007 673.049L196.331 672.98C196.483 662.89 196.517 652.798 196.434 642.707C196.41 636.517 195.98 630.003 196.932 623.884C197.542 620.009 198.832 616.272 200.742 612.846C205.416 604.501 212.505 600.423 221.475 597.894L221.485 378.326L221.53 314.354C221.544 304.115 220.758 293.115 221.821 282.975C222.307 278.336 224.197 274.193 227.298 270.707C230.993 266.554 235.723 264.783 241.194 264.55C252.726 264.059 264.49 264.515 276.049 264.511L343.227 264.461L546.771 264.489L706.363 264.483L757.989 264.468C767.354 264.468 776.954 264.057 786.296 264.694C790.321 264.969 794.153 266.776 797.076 269.532C798.942 271.291 800.83 273.8 801.313 276.377C802.293 281.599 801.858 287.426 801.841 292.732L801.639 321.745C801.452 357.311 801.479 392.878 801.719 428.444L921.991 428.322L962.429 428.347C970.418 428.372 978.524 428.119 986.489 428.725C991.598 429.113 996.051 430.231 999.429 434.366C1002.26 437.835 1002.85 442.151 1002.41 446.491C1001.78 452.699 1000.49 458.956 999.48 465.115L994.263 497.593L971.897 634.884L950.801 765.57C949.069 775.745 947.476 785.942 946.021 796.16C944.967 803.513 944.285 811.251 942.392 818.43C940.854 824.267 937.69 829.111 932.938 832.854C929.534 835.536 925.25 837.108 920.946 837.449C903.451 838.834 885.141 837.801 867.565 837.804L767.559 837.903L693.168 838.014C681.651 838.057 666.901 839.178 655.86 837.784C650.246 837.075 645.207 834.399 641.855 829.784C639.563 826.596 638.187 822.841 637.876 818.927C637.338 812.676 639.023 805.706 639.933 799.51L644.256 770.328C634.223 770.062 624.112 770.359 614.069 770.379L558.759 770.341L369.062 770.303C368.517 798.092 369.377 825.933 369.234 853.733C369.183 863.793 370.364 875.14 368.454 885.002C367.38 890.548 365.001 895.231 361.062 899.3C351.922 908.742 338.144 909.206 325.821 909.339L258.252 909.403C247.895 909.42 230.492 910.603 220.8 908.579C214.8 907.289 209.303 904.287 204.975 899.936C201.333 896.301 198.727 891.76 197.424 886.782C195.55 879.629 196.347 871.286 196.308 863.932L196.141 833.932C186.015 833.634 175.829 833.889 165.694 833.875L107.041 833.826C94.907 833.842 82.1655 834.657 70.0921 833.657C66.667 833.373 63.2938 832.826 60.2296 831.194C53.8503 827.796 48.5782 821.822 46.5334 814.829C43.8786 805.749 45.1407 794.381 45.1546 784.932L45.2174 748.3L45.0899 641.832C45.0997 637.776 45.8542 616.245 44.91 613.811C44.6373 613.108 43.4942 613.017 42.8262 612.794C42.0358 612.06 41.8915 611.185 41.7333 610.153C41.1403 606.283 40.9995 600.004 43.4113 596.844C44.9596 594.816 45.5257 593.175 45.617 590.596C45.7107 587.952 45.7806 585.913 43.8655 583.896C41.6458 581.559 40.9608 580.195 40.9665 576.908C40.9728 573.235 40.9355 570.28 43.6306 567.561C46.4496 564.716 45.5235 557.593 45.4557 553.773C44.0947 553.355 42.9244 553.034 41.7759 552.147C41.3947 550.323 41.0202 548.475 40.9466 546.608C40.7158 540.754 43.9147 540.883 44.8216 537.819C45.6073 535.163 45.4025 531.606 45.3883 528.834C45.3275 516.999 44.415 505.165 53.4466 495.949C57.5298 491.782 62.5981 489.003 68.3585 488.006C74.7227 486.904 81.5087 487.377 87.9551 487.387L118.343 487.457L219.528 487.36L219.525 496.709C209.586 496.844 199.631 496.743 189.69 496.784C191.651 500.163 193.551 503.874 192.703 507.924C192.259 510.047 190.852 511.923 188.987 513.025C187.024 514.185 183.677 514.366 181.403 514.48C174.194 514.84 107.403 515.236 103.077 513.738C100.996 513.016 99.194 511.202 98.3471 509.182C96.6152 505.052 98.7767 500.464 100.271 496.609C98.5076 496.48 96.742 496.379 94.9751 496.305C84.797 495.888 68.7077 493.853 60.7903 501.564C55.8266 506.398 54.6513 512.716 54.4541 519.334C53.8649 539.112 54.5095 559.028 54.5204 578.819L54.5331 701.301L54.4939 772.306C54.4778 783.996 53.5113 796.471 54.7112 808.074C55.1912 812.716 56.6097 816.279 59.9156 819.663C61.8405 821.633 64.5452 823.776 67.3293 824.277C74.8111 825.625 91.2035 824.614 99.7356 824.697C131.856 824.943 163.977 824.955 196.097 824.732L196.104 809.99C167.234 809.527 138.286 809.847 109.408 809.868C97.9507 809.876 82.2516 810.809 71.3812 809.729C69.7897 809.571 68.643 809.549 67.5848 808.189C66.5969 806.92 66.529 803.606 66.4776 801.962C66.1597 791.8 66.4792 781.545 66.4918 771.37L66.4255 720.906L66.4905 573.558ZM565.286 283.249L343.019 283.336L275.725 283.351C264.902 283.352 253.332 282.526 242.591 283.562C241.037 283.712 240.014 284.305 238.881 285.367C237.066 287.071 236.355 289.439 236.165 291.855C235.259 303.368 235.901 315.43 235.887 327L235.852 393.928L235.494 596.507C256.427 596.516 277.395 596.763 298.324 596.516L298.073 407.735C298.105 378.396 297.666 348.984 297.992 319.654C298.535 317.528 299.101 315.554 301.039 314.286C302.297 313.463 303.762 313.209 305.237 313.128C311.495 312.782 317.892 313.071 324.17 313.074L361.525 313.102L474.704 313.111L663.799 313.001C671.88 313.004 716.248 311.968 721.161 313.504C723.436 314.215 724.648 316.291 725.962 318.134C726.898 336.674 726.447 355.339 726.344 373.898L726.272 428.422L787.221 428.484C787.698 397.754 787.81 367.02 787.557 336.288C787.547 321.042 788.659 304.876 787.635 289.743C787.501 287.766 787.556 285.605 785.955 284.22C784.878 283.289 782.998 283.225 781.638 283.166C773.264 282.801 764.793 283.072 756.408 283.097L712.45 283.171L565.286 283.249ZM303.15 315.599C301.14 317.291 300.787 318.586 300.576 321.164C299.565 333.485 300.6 346.684 300.727 359.095L608.676 358.879C646.242 359.169 683.81 359.134 721.376 358.772L723.217 358.475C724.236 356.215 724.086 321.566 723.156 318.927C722.725 317.703 722.049 316.78 720.877 316.181C719.395 315.423 716.821 315.533 715.172 315.511C641.108 314.878 567.039 314.874 492.974 315.499L371.413 315.522C348.659 315.431 325.904 315.457 303.15 315.599ZM300.714 361.608L300.689 596.617L323.768 596.559C337.565 596.487 350.268 595.343 360.742 606.016C361.969 607.267 363.159 608.634 364.213 610.032L668.8 610.375C670.186 600.196 671.678 590.032 673.274 579.884C674.073 574.588 674.581 569.076 675.662 563.85L690.243 475.103C692.072 464.189 692.841 449.864 696.738 439.784C697.823 436.976 701.195 433.885 703.593 432.201C709.614 427.972 716.623 428.308 723.607 428.379L723.537 361.477L453.981 361.448L351.976 361.486C334.928 361.509 317.748 361.099 300.714 361.608ZM983.96 431.521C987.93 434.587 991.264 437.885 991.829 443.171C992.759 451.869 988.561 470.215 987.061 479.443L975.502 549.567L944.438 741.821C940.671 764.776 937.739 787.967 933.471 810.828C932.669 815.127 931.708 820.99 928.888 824.44C925.796 828.22 922.143 830.223 917.309 830.564C903.484 831.54 889.106 830.55 875.213 830.519L790.419 830.491L702.527 830.533C687.653 830.541 672.179 831.415 657.364 830.353C653.508 830.077 650.101 829.454 647.078 826.846C644.109 824.286 642.578 820.447 639.666 817.978C640.772 822.165 641.798 825.487 644.466 829.007C648.254 832.619 651.723 834.692 657.033 835.345C666.74 836.539 677.354 835.616 687.165 835.592L747.688 835.541L860.425 835.505C879.077 835.504 897.845 835.994 916.484 835.495C923.356 835.312 929.305 833.857 934.225 828.667C938.27 824.401 939.796 819.605 940.923 814.009C943.235 802.53 944.632 790.786 946.404 779.205L954.243 730.197L980.689 566.045L994.522 481.8C996.247 471.372 1000.52 453.687 1000.26 443.972C1000.16 440.501 999.114 436.971 996.484 434.568C992.981 431.367 988.433 431.343 983.96 431.521ZM840.499 442.992C839.768 443.095 839.15 443.586 838.885 444.275C838.619 444.964 838.748 445.743 839.22 446.31C839.693 446.877 840.436 447.143 841.161 447.006C842.247 446.801 842.97 445.766 842.791 444.676C842.611 443.585 841.593 442.838 840.499 442.992ZM709.103 453.188C704.889 475.563 701.695 498.169 698.057 520.642C689.005 577.342 680.264 634.091 671.834 690.886C667.67 718.489 663.124 745.994 659.465 773.672C658.214 783.127 655.896 793.005 655.945 802.52L858.28 802.41L893.637 802.376C900.602 802.434 912.306 803.699 918.612 802.105C919 801.479 919.201 801.195 919.305 800.451L957.514 565.501L970.97 483.098C972.283 474.954 974.493 466.82 975.59 458.678C975.821 456.97 975.699 455.764 975.088 454.165C973.181 452.85 968.35 453.041 965.977 452.989C948.585 452.612 931.108 452.972 913.708 452.995L817.192 453.078L750.16 453.097C736.534 453.063 722.708 452.583 709.103 453.188ZM226.053 606.623C219.749 607.674 214.337 610.5 210.598 615.83C208.834 618.359 207.613 621.226 207.012 624.25C205.862 629.986 206.391 636.343 206.407 642.191L206.517 669.134L300.062 669.21C316.407 669.198 333.147 668.44 349.451 669.335C350.124 688.914 349.842 708.558 349.841 728.147L349.811 810.078L349.96 856.448C349.994 865.017 350.416 873.93 349.638 882.459C338.919 883.193 327.946 882.76 317.197 882.77L262.485 882.89L233.708 882.979C228.822 883.003 223.28 883.625 218.511 882.759L218.11 881.962C219.206 881.161 220.48 881.101 221.799 881.02C233.001 880.332 244.619 880.984 255.863 880.977C286.444 880.958 317.219 881.677 347.779 880.818C347.875 861.58 347.804 842.342 347.568 823.106L347.605 757.4C347.499 728.692 347.98 699.987 347.339 671.282L317.75 671.227C280.853 671.183 243.352 670.314 206.529 671.181C206.858 712.17 206.931 753.159 206.748 794.148C206.513 813.317 206.453 832.487 206.567 851.657C206.557 861.355 205.713 871.888 206.841 881.492C207.393 886.193 209.377 890.689 212.692 894.097C215.609 897.096 219.12 898.685 223.22 899.38C233.183 901.069 247.949 899.913 258.409 899.923L330.526 899.889C338.729 899.817 347.882 899.103 353.991 892.954C356.749 890.178 358.804 886.861 359.356 882.941C360.574 874.291 359.831 864.472 359.878 855.728L359.999 798.084C360.045 741.937 361.036 685.617 360.056 629.485C359.934 622.532 358.834 617.359 353.562 612.452C344.859 604.353 333.719 606.433 322.899 606.489C321.856 610.134 320.284 613.459 316.904 615.469C315.437 616.342 314.241 616.618 312.557 616.793C305.836 617.492 260.919 617.803 256.491 616.489C253.137 615.494 251.29 612.489 249.839 609.522C249.401 608.61 248.991 607.686 248.607 606.751C241.124 606.563 233.531 606.297 226.053 606.623ZM543.911 626.75L369.169 626.83C369.186 642.858 368.765 658.978 369.221 674.99C369.38 680.558 370.974 685.783 370.89 691.382C411.301 691.098 451.714 691.06 492.125 691.269L601.945 691.17C619.922 691.179 638.1 690.658 656.046 691.446C659.329 669.919 662.261 648.334 666.046 626.887L543.911 626.75ZM372.668 693.747L371.293 694.013C370.156 695.92 370.966 704.749 370.87 707.501C370.69 712.599 369.605 717.627 369.383 722.722C368.734 737.619 368.71 753.046 369.251 767.957L404.715 767.938C406.156 763.918 407.356 760.611 411.45 758.591C417.199 755.754 431.974 757.518 438.875 757.457C440.535 757.476 442.738 757.782 444.172 756.905C445.826 751.201 446.404 744.885 447.336 739.015C449.726 723.97 451.489 708.826 454.365 693.863L372.668 693.747ZM458.229 693.718C457.934 693.955 457.569 694.126 457.344 694.43C455.274 697.235 448.531 749.204 446.887 757.512L563.25 757.472L575.28 757.495C571.848 736.361 568.247 715.094 565.321 693.891C529.646 693.87 493.896 693.266 458.229 693.718ZM568.489 693.723C568.804 700.068 570.07 706.492 571.022 712.772L575.668 743.284C576.38 747.959 577.381 752.793 577.674 757.509C585.538 757.465 603.31 756.296 610.095 758.036C611.594 758.42 612.766 759.115 613.849 760.216C615.845 762.244 616.965 765.239 618.103 767.805C626.862 767.762 635.621 767.777 644.38 767.85C644.898 764.857 645.373 761.857 645.805 758.85L652.389 715.467C653.481 708.259 654.237 700.884 655.639 693.736C626.833 693.138 597.291 693.053 568.489 693.723ZM413.294 760.108C411.029 761.059 409.695 762.026 408.741 764.352C408.27 765.501 407.939 766.717 407.599 767.91L609.625 767.894C611.107 767.923 613.015 768.264 614.271 767.372C614.638 766.228 614.649 765.617 614.094 764.506C613.195 762.704 611.473 760.913 609.488 760.395C604.499 759.092 598.087 760.039 592.904 760.037L559.401 759.971L461.215 759.979C445.255 760.009 429.245 759.67 413.294 760.108ZM785.28 808.067C780.181 808.894 776.716 813.697 777.54 818.797C778.364 823.897 783.164 827.366 788.265 826.546C793.371 825.725 796.844 820.919 796.019 815.813C795.195 810.707 790.385 807.238 785.28 808.067Z" />
	<path class="color1"
		d="M235.494 596.507L235.852 393.928L235.887 327C235.901 315.43 235.259 303.368 236.165 291.855C236.355 289.439 237.066 287.071 238.881 285.367C240.014 284.305 241.037 283.712 242.591 283.562C253.332 282.526 264.902 283.352 275.725 283.351L343.019 283.336L565.286 283.249L712.45 283.171L756.408 283.097C764.793 283.072 773.264 282.801 781.638 283.166C782.998 283.225 784.878 283.289 785.955 284.22C787.556 285.605 787.501 287.766 787.635 289.743C788.659 304.876 787.547 321.042 787.557 336.288C787.81 367.02 787.698 397.754 787.221 428.484L726.272 428.422L726.344 373.898C726.447 355.339 726.898 336.674 725.962 318.134C724.648 316.291 723.436 314.215 721.161 313.504C716.248 311.968 671.88 313.004 663.799 313.001L474.704 313.111L361.525 313.102L324.17 313.074C317.892 313.071 311.495 312.782 305.237 313.128C303.762 313.209 302.297 313.463 301.039 314.286C299.101 315.554 298.535 317.528 297.992 319.654C297.666 348.984 298.105 378.396 298.073 407.735L298.324 596.516C277.395 596.763 256.427 596.516 235.494 596.507Z" />
	<path class="color1"
		d="M300.727 359.095C300.6 346.684 299.565 333.485 300.576 321.164C300.787 318.586 301.14 317.291 303.15 315.599C325.904 315.457 348.659 315.431 371.413 315.522L492.974 315.499C567.039 314.874 641.108 314.878 715.172 315.511C716.821 315.533 719.395 315.423 720.877 316.181C722.049 316.78 722.725 317.703 723.156 318.927C724.086 321.566 724.236 356.215 723.217 358.475L721.376 358.772C683.81 359.134 646.242 359.169 608.676 358.879L300.727 359.095ZM344.703 329.762C337.504 329.838 321.381 328.986 315.116 330.184C313.321 330.527 311.51 331.15 310.232 332.515C309.016 333.814 309.178 336.21 309.377 337.869C309.572 339.498 310.138 341.125 311.503 342.149C312.861 343.168 314.615 343.405 316.258 343.505C321.84 343.846 327.582 343.475 333.183 343.479L370.053 343.528L482.75 343.55L504.312 343.495C507.597 343.497 511.186 343.974 514.423 343.385C515.626 343.167 516.766 342.804 517.574 341.816C519.01 340.062 519.02 337.231 518.511 335.137C518.069 333.319 517.123 331.467 515.416 330.56C512.061 328.778 360.527 329.446 344.703 329.762Z" />
	<path class="color3"
		d="M482.75 343.55L370.053 343.528L333.183 343.479C327.582 343.475 321.84 343.846 316.258 343.505C314.615 343.405 312.861 343.168 311.503 342.149C310.138 341.125 309.572 339.498 309.377 337.869C309.178 336.21 309.016 333.814 310.232 332.515C311.51 331.15 313.321 330.527 315.116 330.184C321.381 328.986 337.504 329.838 344.703 329.762C360.527 329.446 512.061 328.778 515.416 330.56C517.123 331.467 518.069 333.319 518.511 335.137C519.02 337.231 519.01 340.062 517.574 341.816C516.766 342.804 515.626 343.167 514.423 343.385C511.186 343.974 507.597 343.497 504.312 343.495L482.75 343.55Z" />
	<path class="color1"
		d="M300.689 596.617L300.714 361.608C317.748 361.099 334.928 361.509 351.976 361.486L453.981 361.448L723.537 361.477L723.607 428.379C716.623 428.308 709.614 427.972 703.593 432.201C701.195 433.885 697.823 436.976 696.738 439.784C692.841 449.864 692.072 464.189 690.243 475.103L675.662 563.85C674.581 569.076 674.073 574.588 673.274 579.884C671.678 590.032 670.186 600.196 668.8 610.375L364.213 610.032C363.159 608.634 361.969 607.267 360.742 606.016C350.268 595.343 337.565 596.487 323.768 596.559L300.689 596.617ZM504.233 410.779C474.14 414.98 453.184 442.827 457.479 472.907C461.774 502.987 489.686 523.856 519.752 519.468C549.687 515.099 570.445 487.336 566.169 457.388C561.893 427.44 534.194 406.596 504.233 410.779ZM520.627 543.756L431.999 544.128C416.462 544.124 400.614 543.424 385.108 544.089C383.358 544.164 381.455 544.239 379.885 545.061L380.149 545.684C386.378 547.7 405.254 546.568 412.749 546.581L474.25 546.553L570.746 546.066C578.887 546.06 609.551 547.065 615.729 545.468L616.311 544.88C615.376 543.74 613.68 543.564 612.287 543.457C602.54 542.709 592.1 543.487 582.293 543.495C561.737 543.422 541.182 543.509 520.627 543.756ZM379.094 562.667C379.299 563.358 379.288 564.171 379.98 564.523C381.066 565.075 382.452 565.075 383.648 565.106C394.494 565.389 405.555 564.851 416.44 564.866L494.788 564.967C501.068 564.971 523.991 565.959 528.826 564.411C528.503 563.704 528.464 563.055 527.682 562.768C525.225 561.865 489.88 562.543 484.676 562.538L412.626 562.461C403.112 562.443 387.728 561.502 379.094 562.667Z" />
	<path class="color2"
		d="M519.752 519.468C489.686 523.856 461.774 502.987 457.479 472.907C453.184 442.827 474.14 414.98 504.233 410.779C534.194 406.596 561.893 427.44 566.169 457.388C570.445 487.336 549.687 515.099 519.752 519.468ZM508.21 414.124C479.957 416.17 458.725 440.754 460.813 469.004C462.9 497.254 487.515 518.45 515.762 516.321C543.95 514.196 565.093 489.644 563.009 461.452C560.926 433.261 536.405 412.082 508.21 414.124Z" />
	<path class="color1"
		d="M515.762 516.321C487.515 518.45 462.9 497.254 460.813 469.004C458.725 440.754 479.957 416.17 508.21 414.124C536.405 412.082 560.926 433.261 563.009 461.452C565.093 489.644 543.95 514.196 515.762 516.321ZM497.815 432.54C493.437 434.051 490.341 435.875 488.312 440.218C486.701 443.667 486.706 447.725 488.078 451.25C489.504 454.914 492.212 457.844 495.88 459.313C498.553 460.384 500.516 460.475 503.307 459.981C507.588 458.276 511.15 455.634 512.973 451.262C514.475 447.74 514.466 443.755 512.946 440.241C511.439 436.83 508.531 434.31 505 433.154C502.6 432.368 500.307 432.398 497.815 432.54ZM489.192 456.976C485.013 460.918 480.576 464.817 476.738 469.085C478.368 471.469 480.067 473.318 482.189 475.255C485.945 470.755 490.05 466.899 494.41 463.004C492.758 460.913 491.159 458.787 489.192 456.976ZM527.403 457.613C524.135 458.486 519.692 459.61 517.71 462.539C516.309 464.609 516.665 467.371 515.08 469.591C513.431 469.995 512.46 469.311 510.743 469.788L510.492 470.576C511.23 471.662 511.923 472.096 513.224 472.406C513.768 472.536 514.249 472.542 514.795 472.571C516.91 477.31 518.652 482.092 523.89 484.09C524.358 484.269 524.838 484.415 525.316 484.567C529.795 484.91 533.602 484.667 537.147 481.598C540.048 479.088 541.697 475.343 541.834 471.532C541.958 468.067 540.8 464.63 538.423 462.08C535.62 459.073 531.446 457.646 527.403 457.613ZM507.593 499.72C508.238 500.675 508.11 500.973 509.306 501.204C513.09 501.935 520.582 502.012 524.198 500.848C522.694 499.33 521.038 499.55 518.974 499.534C515.18 499.53 511.385 499.593 507.593 499.72Z" />
	<path class="color1"
		d="M639.666 817.978C642.578 820.447 644.109 824.286 647.078 826.846C650.101 829.454 653.508 830.077 657.364 830.353C672.179 831.415 687.653 830.541 702.527 830.533L790.419 830.491L875.213 830.519C889.106 830.55 903.484 831.54 917.309 830.564C922.143 830.223 925.796 828.22 928.888 824.44C931.708 820.99 932.669 815.127 933.471 810.828C937.739 787.967 940.671 764.776 944.438 741.821L975.502 549.567L987.061 479.443C988.561 470.215 992.759 451.869 991.829 443.171C991.264 437.885 987.93 434.587 983.96 431.521C988.433 431.343 992.981 431.367 996.484 434.568C999.114 436.971 1000.16 440.501 1000.26 443.972C1000.52 453.687 996.247 471.372 994.522 481.8L980.689 566.045L954.243 730.197L946.404 779.205C944.632 790.786 943.235 802.53 940.923 814.009C939.796 819.605 938.27 824.401 934.225 828.667C929.305 833.857 923.356 835.312 916.484 835.495C897.845 835.994 879.077 835.504 860.425 835.505L747.688 835.541L687.165 835.592C677.354 835.616 666.74 836.539 657.033 835.345C651.723 834.692 648.254 832.619 644.466 829.007C641.798 825.487 640.772 822.165 639.666 817.978Z" />
	<path class="color3"
		d="M503.307 459.981C500.516 460.475 498.553 460.384 495.88 459.313C492.212 457.844 489.504 454.914 488.078 451.25C486.706 447.725 486.701 443.667 488.312 440.218C490.341 435.875 493.437 434.051 497.815 432.54C500.307 432.398 502.6 432.368 505 433.154C508.531 434.31 511.439 436.83 512.946 440.241C514.466 443.755 514.475 447.74 512.973 451.262C511.15 455.634 507.588 458.276 503.307 459.981Z" />
	<path class="color1"
		d="M841.161 447.006C840.436 447.143 839.693 446.877 839.22 446.31C838.748 445.743 838.619 444.964 838.885 444.275C839.15 443.586 839.768 443.095 840.499 442.992C841.593 442.838 842.611 443.585 842.791 444.676C842.97 445.766 842.247 446.801 841.161 447.006Z" />
	<path class="color1"
		d="M655.945 802.52C655.896 793.005 658.214 783.127 659.465 773.672C663.124 745.994 667.67 718.489 671.834 690.886C680.264 634.091 689.005 577.342 698.057 520.642C701.695 498.169 704.889 475.563 709.103 453.188C722.708 452.583 736.534 453.063 750.16 453.097L817.192 453.078L913.708 452.995C931.108 452.972 948.585 452.612 965.977 452.989C968.35 453.041 973.181 452.85 975.088 454.165C975.699 455.764 975.821 456.97 975.59 458.678C974.493 466.82 972.283 474.954 970.97 483.098L957.514 565.501L919.305 800.451C919.201 801.195 919 801.479 918.612 802.105C912.306 803.699 900.602 802.434 893.637 802.376L858.28 802.41L655.945 802.52ZM723.877 477.977C721.99 486.246 721.874 495.189 720.454 503.602C717.485 521.333 714.687 539.092 712.063 556.877C710.234 568.537 708.101 580.207 706.575 591.905L813.371 591.587C815.99 570.274 818.719 548.975 821.556 527.69C823.633 511.394 825.399 495.066 827.826 478.816L947.7 479.097C945.4 495.253 942.635 511.334 940.243 527.476C938.939 536.276 933.221 583.62 930.711 588.36C926.208 587.847 921.388 588.108 916.837 587.965C917.689 581.45 918.769 575.015 919.971 568.556C920.568 568.051 921.122 567.496 921.627 566.898C922.694 565.642 923.275 564.277 923.009 562.594C922.733 560.857 921.993 559.969 920.635 558.943C918.872 558.526 917.641 558.74 915.868 559.085L915.187 559.222C908.752 550.488 904.444 540.212 898.096 531.42L899.115 530.169C898.625 529.132 897.929 527.809 896.917 527.165C895.833 526.476 894.917 526.446 893.705 526.625L892.51 528.355C887.051 538.173 866.439 555.486 856.539 559.812C850.561 561.011 852.559 562.369 848.534 565.322C846.473 566.666 844.447 568.073 842.233 569.155C840.66 568.1 839.197 567.121 837.869 565.764C837.302 564.585 836.739 563.1 835.803 562.174C834.982 561.363 834.748 561.391 833.69 561.466C832.565 562.424 832.416 563.658 832.073 565.024C831.402 568.878 827.486 587.047 828.221 589.428C831.779 589.711 849.33 588.913 850.812 589.536C851.039 589.632 852.019 590.715 852.181 590.747C852.826 590.875 857.29 589.147 859.218 589.262C863.086 589.492 866.821 589.872 870.646 590.503L871.961 589.245L873.299 589.499L874.027 590.725C875.093 590.51 875.705 589.945 876.57 589.32L890.034 589.424L891.248 590.534L891.735 590.407C892.729 590.154 893.463 590.078 894.473 590.092C897.88 590.139 901.248 589.437 904.659 589.414C908.318 589.389 911.896 589.966 915.565 589.838C920.418 589.668 925.877 588.694 930.657 589.786L932.291 589.98C933.304 588.901 933.321 587.65 933.599 586.213C937.696 564.99 940.149 543.306 943.41 521.932C945.676 507.079 949.038 492.049 950.269 477.087C927.812 476.169 905.057 476.842 882.565 476.829L750.048 477.189C747.39 477.205 725.652 476.843 724.793 477.172C724.413 477.317 724.182 477.709 723.877 477.977ZM723.373 608.75C717.565 608.837 711.666 608.729 705.874 609.078C704.559 627.657 700.09 645.922 698.231 664.458C727.797 665.275 757.543 664.583 787.125 664.511C792.455 664.51 797.786 664.622 803.086 663.971C804.787 653.027 806.328 642.059 807.706 631.069C808.665 623.819 810.068 616.28 810.087 608.965C781.183 608.696 752.278 608.624 723.373 608.75ZM826.552 609.112C824.57 612.555 819.075 658.267 819.466 663.764L819.912 663.699L819.71 664.394C821.057 665.111 822.352 665.102 823.83 665.166C845.2 666.08 866.912 665.384 888.316 665.439C896.497 665.46 916.042 666.506 923.118 665.032C924.578 661.635 931.258 611.657 930.739 609.76C930.514 609.543 930.348 609.241 930.065 609.11C928.099 608.203 839.382 608.902 828.749 609.039C828.016 609.05 827.284 609.075 826.552 609.112ZM695.178 692.617C693.773 693.816 693.034 694.74 692.541 696.54C690.062 705.593 689.834 716.119 688.68 725.487C686.374 743.786 683.92 762.065 681.316 780.323C714.722 780.741 748.259 780.649 781.673 780.473C784.44 778.346 784.449 774.108 784.881 770.821C786.103 761.508 795.858 697.333 794.425 694.153C793.415 693.323 792.667 693.128 791.403 693.026C778.131 691.954 764.246 692.779 750.888 692.747C732.374 692.704 713.673 692.059 695.178 692.617ZM807.021 692.719C805.699 693.371 805.201 693.574 804.742 695.022C803.453 699.087 803.182 703.971 802.581 708.22C801.229 717.836 799.952 727.462 798.751 737.098C797.178 749.463 794.747 762.138 793.904 774.526C793.817 775.809 793.671 777.733 794.402 778.859C795.096 779.929 795.998 780.428 797.243 780.603C801.269 781.166 806.033 780.713 810.118 780.727L838.134 780.821L876.645 780.992C883.443 781.047 890.553 781.546 897.317 781.039C898.952 779.519 899.348 778.03 899.859 775.888C902.571 764.526 903.652 748.563 905.326 736.548C906.89 725.319 910.401 708.798 910.596 697.937C910.623 696.44 910.745 695.111 909.749 693.895C901.78 691.482 875.391 692.646 865.603 692.628C846.12 692.59 826.49 692.15 807.021 692.719Z" />
	<path class="color2"
		d="M476.738 469.085C480.576 464.817 485.013 460.918 489.192 456.976C491.159 458.787 492.758 460.913 494.41 463.004C490.05 466.899 485.945 470.755 482.189 475.255C480.067 473.318 478.368 471.469 476.738 469.085ZM489.184 459.409C486.326 461.965 480.444 465.828 480.025 469.884C480.672 471.045 481.321 471.632 482.31 472.483C484.837 470 490.723 465.755 491.125 462.198C490.595 460.988 490.078 460.344 489.184 459.409Z" />
	<path class="color3"
		d="M514.795 472.571C514.249 472.542 513.768 472.536 513.224 472.406C511.923 472.096 511.23 471.662 510.492 470.576L510.743 469.788C512.46 469.311 513.431 469.995 515.08 469.591C516.665 467.371 516.309 464.609 517.71 462.539C519.692 459.61 524.135 458.486 527.403 457.613C531.446 457.646 535.62 459.073 538.423 462.08C540.8 464.63 541.958 468.067 541.834 471.532C541.697 475.343 540.048 479.088 537.147 481.598C533.602 484.667 529.795 484.91 525.316 484.567C524.838 484.415 524.358 484.269 523.89 484.09C518.652 482.092 516.91 477.31 514.795 472.571Z" />
	<path class="color1"
		d="M482.31 472.483C481.321 471.632 480.672 471.045 480.025 469.884C480.444 465.828 486.326 461.965 489.184 459.409C490.078 460.344 490.595 460.988 491.125 462.198C490.723 465.755 484.837 470 482.31 472.483Z" />
	<path class="color2"
		d="M723.877 477.977C724.182 477.709 724.413 477.317 724.793 477.172C725.652 476.843 747.39 477.205 750.048 477.189L882.565 476.829C905.057 476.842 927.812 476.169 950.269 477.087C949.038 492.049 945.676 507.079 943.41 521.932C940.149 543.306 937.696 564.99 933.599 586.213C933.321 587.65 933.304 588.901 932.291 589.98L930.657 589.786L930.711 588.36C933.221 583.62 938.939 536.276 940.243 527.476C942.635 511.334 945.4 495.253 947.7 479.097L827.826 478.816C819.742 477.676 810.568 478.817 802.363 478.896L739.066 479.615C734.96 479.635 727.832 480.797 724.074 479.451L723.877 477.977Z" />
	<path class="color3"
		d="M706.575 591.905C708.101 580.207 710.234 568.537 712.063 556.877C714.687 539.092 717.485 521.333 720.454 503.602C721.874 495.189 721.99 486.246 723.877 477.977L724.074 479.451C727.832 480.797 734.96 479.635 739.066 479.615L802.363 478.896C810.568 478.817 819.742 477.676 827.826 478.816C825.399 495.066 823.633 511.394 821.556 527.69C818.719 548.975 815.99 570.274 813.371 591.587L706.575 591.905ZM737.053 488.05C735.02 488.981 733.158 489.879 732.252 492.059C731.736 493.301 731.717 494.645 732.366 495.852C733.294 497.581 735.133 498.464 736.987 498.814C737.75 498.958 737.733 498.941 738.404 498.993C740.749 498.04 742.534 497.204 743.499 494.721C743.932 493.607 744.006 492.453 743.58 491.321C743.035 489.871 741.821 488.845 740.354 488.399C739.31 488.081 738.138 488.084 737.053 488.05ZM755.382 489.296C753.056 490.246 751.922 492.887 752.834 495.228C753.747 497.57 756.369 498.746 758.725 497.871C760.283 497.293 761.408 495.919 761.668 494.278C761.929 492.636 761.284 490.982 759.981 489.95C758.679 488.917 756.921 488.667 755.382 489.296ZM766.087 532.74C758.031 532.803 734.16 531.799 727.812 533.505C736.006 535.29 754.768 534.282 764.25 534.362C772.633 534.389 795.007 535.721 802.067 533.314C800.244 531.762 770.648 532.68 766.087 532.74ZM764.969 539.753C763.807 539.857 762.793 539.687 761.908 540.484C762.994 540.79 762.38 540.744 763.311 540.606C764.245 540.469 763.853 540.48 764.812 540.705C766.5 541.101 768.427 540.587 770.19 540.625C779.345 540.824 788.467 541.009 797.625 541.029C798.719 540.983 799.553 540.97 800.557 540.507C799.206 539.158 794.703 539.358 792.758 539.359C783.496 539.361 774.23 539.63 764.969 539.753ZM760.952 546.226C754.701 546.459 730.36 545.714 726.306 547.184C733.471 549.113 757.511 547.981 765.882 547.735C771.936 547.545 796.241 548.329 799.672 547.165L799.784 546.422C797.49 545.243 766.091 546.015 760.952 546.226ZM775.42 553.239C764.695 553.417 753.968 553.514 743.241 553.53C738.468 553.548 733.216 553.084 728.498 553.551C727.399 553.66 725.865 553.862 725.055 554.649C732.752 555.949 741.805 555.086 749.625 555.032C756.546 555.024 795.455 556.029 798.487 553.906L797.481 553.559L798.545 553.816L798.203 553.995C798.059 553.914 797.922 553.817 797.77 553.752C794.025 552.156 780.08 553.132 775.42 553.239ZM726.854 560.718L725.547 561.273C727.212 562.783 788.61 562.054 796.125 562.062L797.255 561.682L797.2 561.084C790.468 559.304 777.799 560.488 770.537 560.499C755.994 560.52 741.388 560.272 726.854 560.718Z" />
	<path class="color1"
		d="M738.404 498.993C737.733 498.941 737.75 498.958 736.987 498.814C735.133 498.464 733.294 497.581 732.366 495.852C731.717 494.645 731.736 493.301 732.252 492.059C733.158 489.879 735.02 488.981 737.053 488.05C738.138 488.084 739.31 488.081 740.354 488.399C741.821 488.845 743.035 489.871 743.58 491.321C744.006 492.453 743.932 493.607 743.499 494.721C742.534 497.204 740.749 498.04 738.404 498.993Z" />
	<path class="color1"
		d="M758.725 497.871C756.369 498.746 753.747 497.57 752.834 495.228C751.922 492.887 753.056 490.246 755.382 489.296C756.921 488.667 758.679 488.917 759.981 489.95C761.284 490.982 761.929 492.636 761.668 494.278C761.408 495.919 760.283 497.293 758.725 497.871Z" />
	<path class="color2"
		d="M524.198 500.848C520.582 502.012 513.09 501.935 509.306 501.204C508.11 500.973 508.238 500.675 507.593 499.72C511.385 499.593 515.18 499.53 518.974 499.534C521.038 499.55 522.694 499.33 524.198 500.848Z" />
	<path class="color3"
		d="M66.4905 573.558C66.5247 555.619 66.3549 537.491 66.9813 519.572C98.564 519.898 130.149 519.996 161.733 519.865C180.069 519.807 198.438 519.388 216.772 519.674L216.499 574.004L115.155 574.157L85.11 574.08C79.5768 574.066 73.373 573.526 67.9452 574.455L66.4905 573.558ZM81.3957 551.934L81.4021 561.001C86.1742 561.005 91.0027 561.171 95.7678 560.979L95.8407 551.912C91.0257 551.878 86.2106 551.885 81.3957 551.934Z" />
	<path class="color4"
		d="M856.539 559.812C866.439 555.486 887.051 538.173 892.51 528.355L893.705 526.625C894.917 526.446 895.833 526.476 896.917 527.165C897.929 527.809 898.625 529.132 899.115 530.169L898.096 531.42L896.485 531.885C895.809 531.065 895.041 530.586 894.158 530.008C885.307 542.75 871.402 553.792 858.23 561.879L856.539 559.812Z" />
	<path class="color1"
		d="M894.158 530.008C895.041 530.586 895.809 531.065 896.485 531.885C901.674 541.095 907.516 552.042 914.08 560.261C913.746 569.674 912.649 578.598 910.848 587.852C906.413 587.885 901.965 587.847 897.532 587.962C898.596 581.265 900.027 574.395 900.429 567.632L899.994 567.048C896.668 569.915 897.361 586.558 895.322 587.74C895.009 587.921 894.612 587.878 894.257 587.947C893.459 586.988 893.243 586.519 893.457 585.241C894.436 579.374 895.919 573.786 896.333 567.793L895.924 567.15L895.146 567.254C892.067 572.037 893.831 582.953 890.619 588.167C885.96 587.657 880.875 587.967 876.171 587.935C876.6 582.399 879.437 571.471 877.938 566.608L877.419 566.562C875.01 572.04 876.768 583.879 873.043 588.022L872.143 587.679C870.778 584.7 875.896 567.807 875.062 563.308C874.878 562.311 875.072 562.66 874.283 562.085C872.228 564.278 870.335 583.311 869.446 588.038L853.781 588.01C855.045 580.321 856.346 572.645 857.199 564.897C857.307 563.356 857.34 563.129 858.23 561.879C871.402 553.792 885.307 542.75 894.158 530.008Z" />
	<path class="color4"
		d="M898.096 531.42C904.444 540.212 908.752 550.488 915.187 559.222L915.868 559.085C917.641 558.74 918.872 558.526 920.635 558.943C921.993 559.969 922.733 560.857 923.009 562.594C923.275 564.277 922.694 565.642 921.627 566.898C921.122 567.496 920.568 568.051 919.971 568.556C918.769 575.015 917.689 581.45 916.837 587.965C921.388 588.108 926.208 587.847 930.711 588.36L930.657 589.786C925.877 588.694 920.418 589.668 915.565 589.838C911.896 589.966 908.318 589.389 904.659 589.414C901.248 589.437 897.88 590.139 894.473 590.092C893.463 590.078 892.729 590.154 891.735 590.407L891.248 590.534L890.034 589.424C890.001 588.608 889.912 589.061 890.619 588.167C893.831 582.953 892.067 572.037 895.146 567.254L895.924 567.15L896.333 567.793C895.919 573.786 894.436 579.374 893.457 585.241C893.243 586.519 893.459 586.988 894.257 587.947C894.612 587.878 895.009 587.921 895.322 587.74C897.361 586.558 896.668 569.915 899.994 567.048L900.429 567.632C900.027 574.395 898.596 581.265 897.532 587.962C901.965 587.847 906.413 587.885 910.848 587.852C912.649 578.598 913.746 569.674 914.08 560.261C907.516 552.042 901.674 541.095 896.485 531.885L898.096 531.42ZM917.184 560.257C916.349 562.04 915.877 563.779 916.681 565.689C916.988 566.418 917.385 566.535 918.003 566.956L919.398 566.862C920.223 565.373 920.964 564.256 920.91 562.489C920.044 561.109 919.403 560.672 917.733 560.339C917.552 560.303 917.367 560.285 917.184 560.257ZM915.662 567.082C915.575 571.839 912.014 584.403 913.611 587.735L914.958 587.842C915.631 583.291 918.632 571.726 917.415 568.065C916.827 567.688 916.31 567.351 915.662 567.082Z" />
	<path class="color1"
		d="M764.25 534.362C754.768 534.282 736.006 535.29 727.812 533.505C734.16 531.799 758.031 532.803 766.087 532.74C770.648 532.68 800.244 531.762 802.067 533.314C795.007 535.721 772.633 534.389 764.25 534.362Z" />
	<path class="color5"
		d="M797.625 541.029C788.467 541.009 779.345 540.824 770.19 540.625C768.427 540.587 766.5 541.101 764.812 540.705C763.853 540.48 764.245 540.469 763.311 540.606C762.38 540.744 762.994 540.79 761.908 540.484C762.793 539.687 763.807 539.857 764.969 539.753C774.23 539.63 783.496 539.361 792.758 539.359C794.703 539.358 799.206 539.158 800.557 540.507C799.553 540.97 798.719 540.983 797.625 541.029Z" />
	<path class="color2"
		d="M474.25 546.553L412.749 546.581C405.254 546.568 386.378 547.7 380.149 545.684L379.885 545.061C381.455 544.239 383.358 544.164 385.108 544.089C400.614 543.424 416.462 544.124 431.999 544.128L520.627 543.756C541.182 543.509 561.737 543.422 582.293 543.495C592.1 543.487 602.54 542.709 612.287 543.457C613.68 543.564 615.376 543.74 616.311 544.88L615.729 545.468C609.551 547.065 578.887 546.06 570.746 546.066L474.25 546.553Z" />
	<path fill="#F3F3F3"
		d="M765.882 547.735C757.511 547.981 733.471 549.113 726.306 547.184C730.36 545.714 754.701 546.459 760.952 546.226C766.091 546.015 797.49 545.243 799.784 546.422L799.672 547.165C796.241 548.329 771.936 547.545 765.882 547.735Z" />
	<path fill="#1a1515"
		d="M81.4021 561.001L81.3957 551.934C86.2106 551.885 91.0257 551.878 95.8407 551.912L95.7678 560.979C91.0027 561.171 86.1742 561.005 81.4021 561.001Z" />
	<path class="color1"
		d="M749.625 555.032C741.805 555.086 732.752 555.949 725.055 554.649C725.865 553.862 727.399 553.66 728.498 553.551C733.216 553.084 738.468 553.548 743.241 553.53C753.968 553.514 764.695 553.417 775.42 553.239C780.08 553.132 794.025 552.156 797.77 553.752C797.922 553.817 798.059 553.914 798.203 553.995L798.545 553.816L797.481 553.559L798.487 553.906C795.455 556.029 756.546 555.024 749.625 555.032Z" />
	<path class="color4"
		d="M848.534 565.322C852.559 562.369 850.561 561.011 856.539 559.812L858.23 561.879C857.34 563.129 857.307 563.356 857.199 564.897C856.652 565.244 856 565.769 855.389 565.97C854.606 565.652 853.811 565.59 852.978 565.464L852.202 565.348L850.827 566.704L850.108 566.351C850.69 565.457 850.438 565.965 850.808 564.801C850.017 565.119 850.424 564.996 849.372 565.182L848.534 565.322Z" />
	<path class="color1"
		d="M796.125 562.062C788.61 562.054 727.212 562.783 725.547 561.273L726.854 560.718C741.388 560.272 755.994 560.52 770.537 560.499C777.799 560.488 790.468 559.304 797.2 561.084L797.255 561.682L796.125 562.062Z" />
	<path class="color1"
		d="M919.398 566.862L918.003 566.956C917.385 566.535 916.988 566.418 916.681 565.689C915.877 563.779 916.349 562.04 917.184 560.257C917.367 560.285 917.552 560.303 917.733 560.339C919.403 560.672 920.044 561.109 920.91 562.489C920.964 564.256 920.223 565.373 919.398 566.862Z" />
	<path class="color4"
		d="M832.073 565.024C832.416 563.658 832.565 562.424 833.69 561.466C834.748 561.391 834.982 561.363 835.803 562.174C836.739 563.1 837.302 564.585 837.869 565.764C837.199 565.917 836.65 566.089 835.959 566.035C835.287 565.916 834.61 565.935 833.93 565.918C833.089 565.703 832.769 565.505 832.073 565.024Z" />
	<path class="color4"
		d="M876.57 589.32C875.705 589.945 875.093 590.51 874.027 590.725L873.299 589.499L871.961 589.245L870.646 590.503C866.821 589.872 863.086 589.492 859.218 589.262C857.29 589.147 852.826 590.875 852.181 590.747C852.019 590.715 851.039 589.632 850.812 589.536C849.33 588.913 831.779 589.711 828.221 589.428C827.486 587.047 831.402 568.878 832.073 565.024C832.769 565.505 833.089 565.703 833.93 565.918C832.745 570.029 829.838 583.604 830.808 587.563L831.467 587.916C832.581 587.074 832.883 586.118 833.115 584.791C834.199 578.585 834.876 572.266 835.959 566.035C836.65 566.089 837.199 565.917 837.869 565.764C839.197 567.121 840.66 568.1 842.233 569.155C844.447 568.073 846.473 566.666 848.534 565.322L849.372 565.182C850.424 564.996 850.017 565.119 850.808 564.801C850.438 565.965 850.69 565.457 850.108 566.351L850.827 566.704C847.364 568.294 844.449 569.74 841.628 572.365C839.981 570.56 838.355 568.763 836.552 567.109C837.03 572.546 835.8 578.275 834.951 583.63C834.809 585.388 834.377 586.118 835.536 587.508C839.393 588.837 843.739 587.874 847.782 587.916C848.928 581.198 850.956 573.523 850.827 566.704L852.202 565.348L852.978 565.464C852.973 565.653 852.969 565.842 852.962 566.031C852.801 570.059 849.487 585.755 850.25 587.589L851.182 588.004C853.229 585.81 854.463 570.124 855.389 565.97C856 565.769 856.652 565.244 857.199 564.897C856.346 572.645 855.045 580.321 853.781 588.01L869.446 588.038C870.335 583.311 872.228 564.278 874.283 562.085C875.072 562.66 874.878 562.311 875.062 563.308C875.896 567.807 870.778 584.7 872.143 587.679L873.043 588.022C876.768 583.879 875.01 572.04 877.419 566.562L877.938 566.608C879.437 571.471 876.6 582.399 876.171 587.935L876.57 589.32Z" />
	<path class="color2"
		d="M528.826 564.411C523.991 565.959 501.068 564.971 494.788 564.967L416.44 564.866C405.555 564.851 394.494 565.389 383.648 565.106C382.452 565.075 381.066 565.075 379.98 564.523C379.288 564.171 379.299 563.358 379.094 562.667C387.728 561.502 403.112 562.443 412.626 562.461L484.676 562.538C489.88 562.543 525.225 561.865 527.682 562.768C528.464 563.055 528.503 563.704 528.826 564.411Z" />
	<path fill="#F3F3F3"
		d="M833.93 565.918C834.61 565.935 835.287 565.916 835.959 566.035C834.876 572.266 834.199 578.585 833.115 584.791C832.883 586.118 832.581 587.074 831.467 587.916L830.808 587.563C829.838 583.604 832.745 570.029 833.93 565.918Z" />
	<path fill="#F3F3F3"
		d="M852.978 565.464C853.811 565.59 854.606 565.652 855.389 565.97C854.463 570.124 853.229 585.81 851.182 588.004L850.25 587.589C849.487 585.755 852.801 570.059 852.962 566.031C852.969 565.842 852.973 565.653 852.978 565.464Z" />
	<path class="color1"
		d="M841.628 572.365C844.449 569.74 847.364 568.294 850.827 566.704C850.956 573.523 848.928 581.198 847.782 587.916C843.739 587.874 839.393 588.837 835.536 587.508C834.377 586.118 834.809 585.388 834.951 583.63C835.8 578.275 837.03 572.546 836.552 567.109C838.355 568.763 839.981 570.56 841.628 572.365Z" />
	<path fill="#F3F3F3"
		d="M914.958 587.842L913.611 587.735C912.014 584.403 915.575 571.839 915.662 567.082C916.31 567.351 916.827 567.688 917.415 568.065C918.632 571.726 915.631 583.291 914.958 587.842Z" />
	<path class="color2"
		d="M150.181 655.637C131.019 659.024 112.722 646.29 109.241 627.145C105.759 608 118.402 589.64 137.53 586.064C156.792 582.463 175.309 595.215 178.814 614.494C182.32 633.773 169.478 652.227 150.181 655.637ZM139.692 588.145C130.76 589.535 123.696 593.487 118.267 600.808C112.802 608.179 110.934 617.027 112.399 626.047C112.569 627.07 112.765 628.089 112.987 629.102C117.701 629.084 128.001 628.004 132.057 629.983L132.111 630.696C129.453 632.124 117.602 631.341 114.018 631.37C116.95 640.018 121.974 646.672 130.328 650.7C131.485 651.258 132.679 651.743 133.871 652.22C142.578 654.838 151.107 654.516 159.202 650.085C166.833 645.907 172.213 638.797 174.609 630.477C177.083 621.885 176.237 612.193 171.855 604.356C167.48 596.53 160.096 591.322 151.502 588.999C147.725 587.978 143.582 587.565 139.692 588.145Z" />
	<path class="color1"
		d="M112.987 629.102C112.765 628.089 112.569 627.07 112.399 626.047C110.934 617.027 112.802 608.179 118.267 600.808C123.696 593.487 130.76 589.535 139.692 588.145C143.582 587.565 147.725 587.978 151.502 588.999C160.096 591.322 167.48 596.53 171.855 604.356C176.237 612.193 177.083 621.885 174.609 630.477C172.213 638.797 166.833 645.907 159.202 650.085C151.107 654.516 142.578 654.838 133.871 652.22C132.679 651.743 131.485 651.258 130.328 650.7C121.974 646.672 116.95 640.018 114.018 631.37C117.602 631.341 129.453 632.124 132.111 630.696L132.057 629.983C128.001 628.004 117.701 629.084 112.987 629.102ZM137.702 604.049C133.806 605.5 130.823 607.389 128.952 611.276C128.114 613.018 127.815 615.037 128.583 616.86C129.067 618.011 129.195 618.231 130.264 618.749C135.017 617.06 138.283 612.88 143.802 615.515C146.296 616.706 147.65 618.509 149.185 620.733C147.47 623.169 145.745 625.461 143.755 627.682C146.737 629.35 149.358 631.003 151.81 633.434C153.65 635.146 155.437 636.707 157.53 638.12C157.067 636.045 156.661 633.945 156.015 631.918C157.647 626.313 160.192 621.283 162.922 616.142C158.764 616.885 154.676 617.776 150.675 619.153C150.116 614.616 149.79 609.023 145.821 605.999C143.34 604.108 140.709 603.956 137.702 604.049Z" />
	<path class="color3"
		d="M876.171 587.935C880.875 587.967 885.96 587.657 890.619 588.167C889.912 589.061 890.001 588.608 890.034 589.424L876.57 589.32L876.171 587.935Z" />
	<path class="color2"
		d="M149.185 620.733C147.65 618.509 146.296 616.706 143.802 615.515C138.283 612.88 135.017 617.06 130.264 618.749C129.195 618.231 129.067 618.011 128.583 616.86C127.815 615.037 128.114 613.018 128.952 611.276C130.823 607.389 133.806 605.5 137.702 604.049C140.709 603.956 143.34 604.108 145.821 605.999C149.79 609.023 150.116 614.616 150.675 619.153C154.676 617.776 158.764 616.885 162.922 616.142C160.192 621.283 157.647 626.313 156.015 631.918C156.661 633.945 157.067 636.045 157.53 638.12C155.437 636.707 153.65 635.146 151.81 633.434C149.358 631.003 146.737 629.35 143.755 627.682C145.745 625.461 147.47 623.169 149.185 620.733ZM137.711 606.536C135.107 607.932 132.556 609.191 131.675 612.251C131.398 613.214 131.246 614.227 131.087 615.216C134.187 613.371 136.501 612.282 140.194 612.089C143.052 612.587 145.309 613.302 147.797 614.806C146.936 611.969 146.17 608.971 143.344 607.45C141.569 606.495 139.674 606.481 137.711 606.536ZM157.461 619.498C153.218 620.907 151.041 623.522 148.05 626.668L151.357 629.224L152.858 630.404C155.403 629.146 157.016 622.702 157.937 620.019L157.461 619.498Z" />
	<path class="color1"
		d="M131.087 615.216C131.246 614.227 131.398 613.214 131.675 612.251C132.556 609.191 135.107 607.932 137.711 606.536C139.674 606.481 141.569 606.495 143.344 607.45C146.17 608.971 146.936 611.969 147.797 614.806C145.309 613.302 143.052 612.587 140.194 612.089C136.501 612.282 134.187 613.371 131.087 615.216Z" />
	<path class="color1"
		d="M206.517 669.134L206.407 642.191C206.391 636.343 205.862 629.986 207.012 624.25C207.613 621.226 208.834 618.359 210.598 615.83C214.337 610.5 219.749 607.674 226.053 606.623C233.531 606.297 241.124 606.563 248.607 606.751C248.991 607.686 249.401 608.61 249.839 609.522C251.29 612.489 253.137 615.494 256.491 616.489C260.919 617.803 305.836 617.492 312.557 616.793C314.241 616.618 315.437 616.342 316.904 615.469C320.284 613.459 321.856 610.134 322.899 606.489C333.719 606.433 344.859 604.353 353.562 612.452C358.834 617.359 359.934 622.532 360.056 629.485C361.036 685.617 360.045 741.937 359.999 798.084L359.878 855.728C359.831 864.472 360.574 874.291 359.356 882.941C358.804 886.861 356.749 890.178 353.991 892.954C347.882 899.103 338.729 899.817 330.526 899.889L258.409 899.923C247.949 899.913 233.183 901.069 223.22 899.38C219.12 898.685 215.609 897.096 212.692 894.097C209.377 890.689 207.393 886.193 206.841 881.492C205.713 871.888 206.557 861.355 206.567 851.657C206.453 832.487 206.513 813.317 206.748 794.148C206.931 753.159 206.858 712.17 206.529 671.181C243.352 670.314 280.853 671.183 317.75 671.227L347.339 671.282C347.98 699.987 347.499 728.692 347.605 757.4L347.568 823.106C347.804 842.342 347.875 861.58 347.779 880.818C317.219 881.677 286.444 880.958 255.863 880.977C244.619 880.984 233.001 880.332 221.799 881.02C220.48 881.101 219.206 881.161 218.11 881.962L218.511 882.759C223.28 883.625 228.822 883.003 233.708 882.979L262.485 882.89L317.197 882.77C327.946 882.76 338.919 883.193 349.638 882.459C350.416 873.93 349.994 865.017 349.96 856.448L349.811 810.078L349.841 728.147C349.842 708.558 350.124 688.914 349.451 669.335C333.147 668.44 316.407 669.198 300.062 669.21L206.517 669.134ZM263.3 855.445C260.147 856.086 256.543 856.262 253.898 858.21C253.722 859.162 253.586 859.559 253.881 860.504L254 861.029L254.948 862.684C257.068 862.921 259.126 863.059 261.259 863.059C259.647 863.357 257.718 863.513 256.325 864.387C255.038 864.537 254.601 864.349 253.616 865.249C255.573 865.911 272.737 866.248 274.108 865.297C274.215 865.223 274.288 865.109 274.378 865.014C277.783 862.701 294.34 864.179 299.589 863.58C306.521 863.248 314.426 864.489 321.186 863.356L321.778 862.521C321.673 861.132 321.692 860.974 320.834 859.895C315.543 858.851 309.203 859.499 303.795 859.535C293.785 859.692 283.772 859.656 273.763 859.427L273.493 859.192L273.712 858.444C273.485 856.899 273.435 856.543 272.501 855.312C269.522 853.844 266.411 854.871 263.3 855.445ZM225.15 637.066C222.148 640.75 223.432 649.333 223.56 654.136C228.306 654.411 233.641 654.877 238.327 654.109C241.058 651.496 240.556 648.42 240.626 644.79C240.671 642.492 240.536 640.413 239.649 638.27C236.983 635.809 229.127 636.907 225.689 637.044L225.15 637.066ZM280.515 697.615C265.969 699.917 256.033 713.559 258.304 728.109C260.575 742.66 274.197 752.625 288.752 750.384C303.35 748.136 313.351 734.465 311.073 719.872C308.795 705.279 295.103 695.307 280.515 697.615ZM224.25 768.736C222.316 768.719 220.956 768.595 219.3 769.681L219.184 770.287C222.62 771.885 323.239 770.954 335.465 770.963C336.495 770.934 337.82 771.061 338.801 770.792L338.52 769.86L338.861 770.692L339.995 770.358C339.761 770.186 339.52 770.022 339.291 769.841C339.162 769.738 339.046 769.62 338.923 769.51C328.855 767.465 312.684 768.704 302.019 768.696L224.25 768.736ZM238.348 779.248C232.406 779.245 225.874 778.662 220.038 779.574C219.38 780.598 219.537 780.342 219.758 781.413C221.761 782.259 271.903 781.469 278.625 781.452C282.167 781.452 293.268 782.463 295.691 780.57C295.814 780.474 295.905 780.343 296.013 780.229L295.729 779.353C292.29 778.328 245.976 779.239 238.348 779.248ZM219.57 789.202C219.988 790.096 219.929 790.655 220.944 790.964C222.987 791.587 225.506 791.059 227.59 790.807C227.044 789.879 227.073 789.418 225.992 789.086C224.101 788.506 221.529 788.94 219.57 789.202ZM231.319 789.139L231.833 790.669C234.645 791.734 293.008 791.286 299.875 790.9L299.223 789.439C296.449 788.565 237.276 788.685 231.319 789.139ZM230.788 811.259L219.316 811.372L219.301 826.977L257.978 826.959L268.796 826.985C268.927 821.711 268.962 816.436 268.901 811.161C256.197 811.031 243.491 811.064 230.788 811.259ZM302.935 811.75C298.554 811.808 277.159 811.075 275.01 812.665C274.797 813.877 274.49 815.019 274.808 816.237C279.752 818.173 289.675 817.048 295.125 817.003C299.851 816.971 318.713 817.736 321.752 816.028C321.951 814.644 322.07 813.568 321.787 812.169C319.621 810.849 306.253 811.703 302.935 811.75ZM218.82 835.989C219.047 837.51 218.877 837.796 220.029 838.774C223.615 839.662 241.054 838.974 245.754 839.009C270.991 839.431 296.233 839.585 321.473 839.472C321.412 837.985 321.576 837.453 320.65 836.249C317.811 835.26 303.017 836.026 298.831 836.014L218.82 835.989ZM218.507 850.552C218.516 855.635 218.449 860.733 218.55 865.814C226.321 865.843 234.111 865.979 241.877 865.707C242.329 860.682 242.124 855.543 242.121 850.499L218.507 850.552Z" />
	<path fill="#383738"
		d="M705.874 609.078C711.666 608.729 717.565 608.837 723.373 608.75C752.278 608.624 781.183 608.696 810.087 608.965C810.068 616.28 808.665 623.819 807.706 631.069C806.328 642.059 804.787 653.027 803.086 663.971C797.786 664.622 792.455 664.51 787.125 664.511C757.543 664.583 727.797 665.275 698.231 664.458C700.09 645.922 704.559 627.657 705.874 609.078ZM706.378 609.972C706.376 610.134 706.376 610.297 706.372 610.459C706.094 622.099 703.436 634.351 701.418 645.824C700.498 651.055 699.092 656.653 699.154 661.963C700.211 662.718 701.135 662.725 702.388 662.791C713.532 663.376 725.162 662.617 736.347 662.592L800.994 662.815L801.887 662.486C803.742 656.926 803.946 649.868 804.731 643.986C806.208 632.911 808.529 621.201 808.616 610.03L706.378 609.972Z" />
	<path class="color2"
		d="M923.118 665.032C916.042 666.506 896.497 665.46 888.316 665.439C866.912 665.384 845.2 666.08 823.83 665.166C822.352 665.102 821.057 665.111 819.71 664.394L819.912 663.699L819.466 663.764C819.075 658.267 824.57 612.555 826.552 609.112C827.284 609.075 828.016 609.05 828.749 609.039C839.382 608.902 928.099 608.203 930.065 609.11C930.348 609.241 930.514 609.543 930.739 609.76C931.258 611.657 924.578 661.635 923.118 665.032ZM827.709 610.51C825.914 619.318 825.217 628.569 824.124 637.5C823.104 645.827 821.556 654.469 821.334 662.84C844.584 663.411 867.913 663.026 891.172 663.07C898.256 663.084 916.174 664.01 921.844 662.741C924.58 645.45 926.831 627.832 928.892 610.446L827.709 610.51Z" />
	<path class="color1"
		d="M800.994 662.815L736.347 662.592C725.162 662.617 713.532 663.376 702.388 662.791C701.135 662.725 700.211 662.718 699.154 661.963C699.092 656.653 700.498 651.055 701.418 645.824C703.436 634.351 706.094 622.099 706.372 610.459C706.376 610.297 706.376 610.134 706.378 609.972L808.616 610.03C808.529 621.201 806.208 632.911 804.731 643.986C803.946 649.868 803.742 656.926 801.887 662.486L800.994 662.815ZM716.933 643.238C716.909 644.759 716.621 646.526 717.458 647.86L718.117 648.338C718.003 646.614 718.26 644.663 717.074 643.353C717.033 643.308 716.98 643.276 716.933 643.238Z" />
	<path class="color1"
		d="M821.334 662.84C821.556 654.469 823.104 645.827 824.124 637.5C825.217 628.569 825.914 619.318 827.709 610.51L928.892 610.446C926.831 627.832 924.58 645.45 921.844 662.741C916.174 664.01 898.256 663.084 891.172 663.07C867.913 663.026 844.584 663.411 821.334 662.84ZM834.348 630.979C833.536 632.309 833.09 633.115 833.036 634.732C833.735 635.743 834.144 636.129 835.468 636.339C835.87 636.403 836.271 636.282 836.655 636.195L836.391 635.985L835.866 636.369C834.891 635.302 834.565 635.034 834.242 633.648C835.126 632.19 836.109 631.988 837.509 631.104L834.348 630.979Z" />
	<path class="color1"
		d="M148.05 626.668C151.041 623.522 153.218 620.907 157.461 619.498L157.937 620.019C157.016 622.702 155.403 629.146 152.858 630.404L151.357 629.224L148.05 626.668Z" />
	<path class="color1"
		d="M369.169 626.83L543.911 626.75L666.046 626.887C662.261 648.334 659.329 669.919 656.046 691.446C638.1 690.658 619.922 691.179 601.945 691.17L492.125 691.269C451.714 691.06 411.301 691.098 370.89 691.382C370.974 685.783 369.38 680.558 369.221 674.99C368.765 658.978 369.186 642.858 369.169 626.83Z" />
	<path fill="#383738"
		d="M835.866 636.369L836.391 635.985L836.655 636.195C836.271 636.282 835.87 636.403 835.468 636.339C834.144 636.129 833.735 635.743 833.036 634.732C833.09 633.115 833.536 632.309 834.348 630.979L837.509 631.104C836.109 631.988 835.126 632.19 834.242 633.648C834.565 635.034 834.891 635.302 835.866 636.369Z" />
	<path class="color3"
		d="M223.56 654.136C223.432 649.333 222.148 640.75 225.15 637.066L225.689 637.044C229.127 636.907 236.983 635.809 239.649 638.27C240.536 640.413 240.671 642.492 240.626 644.79C240.556 648.42 241.058 651.496 238.327 654.109C233.641 654.877 228.306 654.411 223.56 654.136ZM232.233 644.743C231.116 646.25 230.196 646.956 230.153 648.862C230.693 649.417 231.181 649.89 231.798 650.365C233.089 649.343 233.67 648.767 233.695 647.012C233.703 646.421 233.422 645.76 233.233 645.219L232.233 644.743Z" />
	<path fill="#989B9C"
		d="M718.117 648.338L717.458 647.86C716.621 646.526 716.909 644.759 716.933 643.238C716.98 643.276 717.033 643.308 717.074 643.353C718.26 644.663 718.003 646.614 718.117 648.338Z" />
	<path class="color1"
		d="M231.798 650.365C231.181 649.89 230.693 649.417 230.153 648.862C230.196 646.956 231.116 646.25 232.233 644.743L233.233 645.219C233.422 645.76 233.703 646.421 233.695 647.012C233.67 648.767 233.089 649.343 231.798 650.365Z" />
	<path class="color5"
		d="M195.907 744.988C195.863 737.284 194.953 685.312 196.362 682.633C196.69 711.156 196.468 739.705 196.465 768.23L196.426 794.642C196.398 798.851 196.732 803.608 196.021 807.755C194.955 798.059 195.822 787.494 195.881 777.714C192.865 777.951 185.138 779.075 182.94 777.11C182.009 776.278 181.872 775.805 181.814 774.66C184.386 772.382 192.391 773.224 195.904 773.069L195.996 750.877C194.278 750.797 192.41 750.83 190.715 750.576C188.876 750.301 187.836 749.618 186.774 748.093C186.883 747.156 186.719 747.093 187.459 746.394C189.589 744.382 193.19 744.958 195.907 744.988Z" />
	<path class="color4"
		d="M161.372 685.697C157.342 686.64 93.0257 686.413 89.7655 685.599L88.9744 684.193C89.3392 684.125 89.703 684.047 90.0717 684.005C98.5656 683.046 109.22 683.889 117.886 683.9C131.081 683.917 144.617 683.306 157.776 684.021C159.181 684.098 159.97 684.057 161.061 684.931L160.49 684.978L161.429 685.383L161.372 685.697Z" />
	<path class="color2"
		d="M681.316 780.323C683.92 762.065 686.374 743.786 688.68 725.487C689.834 716.119 690.062 705.593 692.541 696.54C693.034 694.74 693.773 693.816 695.178 692.617C713.673 692.059 732.374 692.704 750.888 692.747C764.246 692.779 778.131 691.954 791.403 693.026C792.667 693.128 793.415 693.323 794.425 694.153C795.858 697.333 786.103 761.508 784.881 770.821C784.449 774.108 784.44 778.346 781.673 780.473C748.259 780.649 714.722 780.741 681.316 780.323ZM695.7 695.082C693.234 703.185 691.986 719.863 690.794 728.772C688.622 744.997 685.583 761.509 684.231 777.794C702.648 777.727 721.064 777.755 739.48 777.878C753.333 777.986 767.266 778.381 781.112 777.949C783.896 767.526 784.716 754.121 786.25 743.195L790.477 711.843C791.211 706.428 792.368 700.914 792.708 695.472C775.485 694.729 758.103 695.076 740.861 695.048C725.853 695.023 710.692 694.553 695.7 695.082Z" />
	<path class="color2"
		d="M897.317 781.039C890.553 781.546 883.443 781.047 876.645 780.992L838.134 780.821L810.118 780.727C806.033 780.713 801.269 781.166 797.243 780.603C795.998 780.428 795.096 779.929 794.402 778.859C793.671 777.733 793.817 775.809 793.904 774.526C794.747 762.138 797.178 749.463 798.751 737.098C799.952 727.462 801.229 717.836 802.581 708.22C803.182 703.971 803.453 699.087 804.742 695.022C805.201 693.574 805.699 693.371 807.021 692.719C826.49 692.15 846.12 692.59 865.603 692.628C875.391 692.646 901.78 691.482 909.749 693.895C910.745 695.111 910.623 696.44 910.596 697.937C910.401 708.798 906.89 725.319 905.326 736.548C903.652 748.563 902.571 764.526 899.859 775.888C899.348 778.03 898.952 779.519 897.317 781.039ZM807.044 695.005C803.886 707.037 802.279 727.071 800.563 740.139C799.438 748.705 795.738 770.19 796.319 777.518C796.481 777.669 796.6 777.888 796.805 777.972C798.394 778.626 886.153 778.878 895.486 778.511C895.944 778.493 896.402 778.456 896.858 778.413C899.755 769.51 900.473 755.68 901.728 746.166C903.951 729.301 906.562 712.477 908.615 695.592C896.355 694.862 883.948 695.149 871.666 695.09L807.044 695.005Z" />
	<path class="color3"
		d="M150.961 694.749C147.071 696.29 97.2702 695.81 90.1332 695.226L88.9038 693.679C90.1161 693.445 91.2784 693.332 92.5148 693.298C99.1692 693.115 148.208 693.054 149.957 693.786C150.384 693.965 150.626 694.428 150.961 694.749Z" />
	<path class="color1"
		d="M446.887 757.512C448.531 749.204 455.274 697.235 457.344 694.43C457.569 694.126 457.934 693.955 458.229 693.718C493.896 693.266 529.646 693.87 565.321 693.891C568.247 715.094 571.848 736.361 575.28 757.495L563.25 757.472L446.887 757.512Z" />
	<path class="color1"
		d="M684.231 777.794C685.583 761.509 688.622 744.997 690.794 728.772C691.986 719.863 693.234 703.185 695.7 695.082C710.692 694.553 725.853 695.023 740.861 695.048C758.103 695.076 775.485 694.729 792.708 695.472C792.368 700.914 791.211 706.428 790.477 711.843L786.25 743.195C784.716 754.121 783.896 767.526 781.112 777.949C767.266 778.381 753.333 777.986 739.48 777.878C721.064 777.755 702.648 777.727 684.231 777.794ZM741.873 708.12C735.067 709.555 729.893 712.684 726.115 718.706C723.223 723.315 721.898 728.825 723.141 734.191C724.115 738.393 726.535 742.095 730.335 744.237C733.549 746.049 736.98 746.614 740.621 746.45C747.054 745.369 752.164 742.713 755.938 737.178C759.172 732.435 760.605 726.586 759.344 720.933C758.383 716.628 755.879 712.702 752.021 710.456C748.797 708.579 745.547 708.013 741.873 708.12Z" />
	<path class="color1"
		d="M896.858 778.413C896.402 778.456 895.944 778.493 895.486 778.511C886.153 778.878 798.394 778.626 796.805 777.972C796.6 777.888 796.481 777.669 796.319 777.518C795.738 770.19 799.438 748.705 800.563 740.139C802.279 727.071 803.886 707.037 807.044 695.005L871.666 695.09C883.948 695.149 896.355 694.862 908.615 695.592C906.562 712.477 903.951 729.301 901.728 746.166C900.473 755.68 899.755 769.51 896.858 778.413ZM852.437 708.617C845.942 710.14 840.841 712.877 837.183 718.706C834.168 723.51 832.971 729.474 834.498 734.995C835.667 739.22 838.403 742.935 842.286 745.038C846.093 747.101 850.38 747.565 854.63 747.077C861.168 745.298 866.234 742.2 869.682 736.142C872.328 731.494 873.206 726.042 871.691 720.87C870.434 716.578 867.644 712.962 863.702 710.818C860.139 708.88 856.427 708.37 852.437 708.617Z" />
	<path class="color2"
		d="M288.752 750.384C274.197 752.625 260.575 742.66 258.304 728.109C256.033 713.559 265.969 699.917 280.515 697.615C295.103 695.307 308.795 705.279 311.073 719.872C313.351 734.465 303.35 748.136 288.752 750.384ZM282.317 700.232C269.198 701.592 259.666 713.33 261.026 726.449C262.385 739.568 274.123 749.102 287.242 747.742C300.362 746.383 309.896 734.645 308.536 721.525C307.176 708.404 295.437 698.871 282.317 700.232Z" />
	<path class="color1"
		d="M287.242 747.742C274.123 749.102 262.385 739.568 261.026 726.449C259.666 713.33 269.198 701.592 282.317 700.232C295.437 698.871 307.176 708.404 308.536 721.525C309.896 734.645 300.362 746.383 287.242 747.742ZM278.167 712.716C277.351 713.999 276.644 714.883 276.758 716.479C278.872 720.704 285.963 722.441 289.854 725.105C286.846 727.124 277.572 732.012 276.571 735.119C276.341 735.833 276.736 736.337 276.994 736.993C277.833 737.687 278.306 738.183 279.423 738.267L279.816 738.044C284.151 735.16 293.766 729.871 296.054 725.63C295.868 724.406 295.081 723.676 294.143 722.945C290.981 720.481 281.886 713.335 278.167 712.716Z" />
	<path class="color2"
		d="M740.621 746.45C736.98 746.614 733.549 746.049 730.335 744.237C726.535 742.095 724.115 738.393 723.141 734.191C721.898 728.825 723.223 723.315 726.115 718.706C729.893 712.684 735.067 709.555 741.873 708.12C745.547 708.013 748.797 708.579 752.021 710.456C755.879 712.702 758.383 716.628 759.344 720.933C760.605 726.586 759.172 732.435 755.938 737.178C752.164 742.713 747.054 745.369 740.621 746.45ZM740.245 709.575C733.999 711.613 729.242 715.076 726.156 721.055C723.931 725.366 723.286 730.369 724.827 735.014C726.059 738.725 728.508 741.767 732.08 743.442C735.428 745.012 738.8 745.06 742.402 744.751C748.238 743.158 752.919 740.068 755.995 734.707C758.439 730.447 759.306 725.31 758.015 720.535C756.973 716.678 754.662 713.309 751.153 711.318C747.57 709.286 744.199 709.226 740.245 709.575Z" />
	<path class="color2"
		d="M854.63 747.077C850.38 747.565 846.093 747.101 842.286 745.038C838.403 742.935 835.667 739.22 834.498 734.995C832.971 729.474 834.168 723.51 837.183 718.706C840.841 712.877 845.942 710.14 852.437 708.617C856.427 708.37 860.139 708.88 863.702 710.818C867.644 712.962 870.434 716.578 871.691 720.87C873.206 726.042 872.328 731.494 869.682 736.142C866.234 742.2 861.168 745.298 854.63 747.077ZM851.443 710.086C845.601 711.641 840.949 714.382 837.82 719.768C835.207 724.265 834.321 729.777 835.847 734.794C837.008 738.609 839.527 741.974 843.073 743.872C846.975 745.961 851.081 746.097 855.372 745.47C861.106 743.817 865.778 740.767 868.758 735.453C871.13 731.225 871.891 725.938 870.531 721.256C869.417 717.309 866.757 713.978 863.154 712.018C859.385 709.95 855.635 709.746 851.443 710.086Z" />
	<path class="color1"
		d="M742.402 744.751C738.8 745.06 735.428 745.012 732.08 743.442C728.508 741.767 726.059 738.725 724.827 735.014C723.286 730.369 723.931 725.366 726.156 721.055C729.242 715.076 733.999 711.613 740.245 709.575C744.199 709.226 747.57 709.286 751.153 711.318C754.662 713.309 756.973 716.678 758.015 720.535C759.306 725.31 758.439 730.447 755.995 734.707C752.919 740.068 748.238 743.158 742.402 744.751ZM742.141 716.853C740.991 719.459 740.788 722.22 740.43 725.019C738.049 724.947 735.697 724.663 733.437 725.532L733.041 726.261C735.142 727.797 738.076 727.432 740.551 727.371C740.084 729.866 739.24 732.675 739.569 735.206C740.453 735.415 740.109 735.5 740.631 735.273C741.274 732.648 741.854 730.078 742.236 727.399C744.823 727.451 747.285 727.641 749.75 726.699L750.248 726.062C748.216 724.58 744.886 725.031 742.47 725.083C742.944 722.717 743.685 720.235 743.349 717.823C742.959 717.479 742.599 717.102 742.141 716.853Z" />
	<path class="color1"
		d="M855.372 745.47C851.081 746.097 846.975 745.961 843.073 743.872C839.527 741.974 837.008 738.609 835.847 734.794C834.321 729.777 835.207 724.265 837.82 719.768C840.949 714.382 845.601 711.641 851.443 710.086C855.635 709.746 859.385 709.95 863.154 712.018C866.757 713.978 869.417 717.309 870.531 721.256C871.891 725.938 871.13 731.225 868.758 735.453C865.778 740.767 861.106 743.817 855.372 745.47ZM847.215 720.968L846.684 722.239C848.105 724.196 850.686 725.347 852.451 727.056C852.097 729.12 851.688 730.967 852.071 733.06L852.544 733.473C854.345 730.699 853.424 728.329 856.299 725.968C857.957 725.011 860.299 723.924 861.072 722.125C859.66 721.814 858.269 722.403 857.056 723.164C855.866 723.911 854.726 724.756 853.59 725.581C851.632 723.819 849.736 721.889 847.215 720.968Z" />
	<path class="color4"
		d="M289.854 725.105C285.963 722.441 278.872 720.704 276.758 716.479C276.644 714.883 277.351 713.999 278.167 712.716C281.886 713.335 290.981 720.481 294.143 722.945C295.081 723.676 295.868 724.406 296.054 725.63C293.766 729.871 284.151 735.16 279.816 738.044L279.423 738.267C278.306 738.183 277.833 737.687 276.994 736.993C276.736 736.337 276.341 735.833 276.571 735.119C277.572 732.012 286.846 727.124 289.854 725.105Z" />
	<path class="color4"
		d="M88.5021 730.094L88.5635 714.154L147.53 714.016C147.578 719.336 147.499 724.664 147.475 729.985C127.874 730.547 108.12 730.105 88.5021 730.094Z" />
	<path class="color2"
		d="M740.43 725.019C740.788 722.22 740.991 719.459 742.141 716.853C742.599 717.102 742.959 717.479 743.349 717.823C743.685 720.235 742.944 722.717 742.47 725.083C744.886 725.031 748.216 724.58 750.248 726.062L749.75 726.699C747.285 727.641 744.823 727.451 742.236 727.399C741.854 730.078 741.274 732.648 740.631 735.273C740.109 735.5 740.453 735.415 739.569 735.206C739.24 732.675 740.084 729.866 740.551 727.371C738.076 727.432 735.142 727.797 733.041 726.261L733.437 725.532C735.697 724.663 738.049 724.947 740.43 725.019Z" />
	<path class="color2"
		d="M852.451 727.056C850.686 725.347 848.105 724.196 846.684 722.239L847.215 720.968C849.736 721.889 851.632 723.819 853.59 725.581C854.726 724.756 855.866 723.911 857.056 723.164C858.269 722.403 859.66 721.814 861.072 722.125C860.299 723.924 857.957 725.011 856.299 725.968C853.424 728.329 854.345 730.699 852.544 733.473L852.071 733.06C851.688 730.967 852.097 729.12 852.451 727.056Z" />
	<path class="color6"
		d="M92.0403 756.653C91.973 753.478 91.2208 747.875 92.8104 745.109C101.371 744.816 109.964 744.917 118.531 744.881C118.565 747.849 119.327 754.501 117.866 756.984C109.257 756.958 100.648 756.847 92.0403 756.653Z" />
	<path class="color5"
		d="M168.241 748.943C163.068 750.076 141.826 750.223 136.825 749.168C135.76 747.934 135.916 746.437 135.846 744.892C140.747 744.743 163.464 743.808 166.603 745.811C167.877 746.624 167.903 747.592 168.241 748.943Z" />
	<path class="color1"
		d="M407.599 767.91C407.939 766.717 408.27 765.501 408.741 764.352C409.695 762.026 411.029 761.059 413.294 760.108C429.245 759.67 445.255 760.009 461.215 759.979L559.401 759.971L592.904 760.037C598.087 760.039 604.499 759.092 609.488 760.395C611.473 760.913 613.195 762.704 614.094 764.506C614.649 765.617 614.638 766.228 614.271 767.372C613.015 768.264 611.107 767.923 609.625 767.894L407.599 767.91Z" />
	<path class="color2"
		d="M335.465 770.963C323.239 770.954 222.62 771.885 219.184 770.287L219.3 769.681C220.956 768.595 222.316 768.719 224.25 768.736L302.019 768.696C312.684 768.704 328.855 767.465 338.923 769.51C339.046 769.62 339.162 769.738 339.291 769.841C339.52 770.022 339.761 770.186 339.995 770.358L338.861 770.692L338.52 769.86L338.801 770.792C337.82 771.061 336.495 770.934 335.465 770.963Z" />
	<path class="color5"
		d="M164.065 778.563C156.267 778.541 148.471 778.899 140.674 778.882C137.997 778.876 135.025 778.923 133.05 776.951C133.01 775.973 132.887 775.178 133.294 774.263C133.615 773.54 134.287 773.539 134.98 773.285C135.554 773.258 136.128 773.24 136.702 773.229C141.352 773.146 163.372 772.115 165.66 774.333C165.993 775.945 165.735 776.439 165.249 777.975L164.065 778.563Z" />
	<path class="color5"
		d="M119.12 778.713C118.857 778.75 118.594 778.79 118.331 778.825C114.578 779.324 94.354 779.91 91.8399 778.017C90.8294 776.502 90.9331 775.244 90.9323 773.465C96.1877 773.205 115.114 772.415 119.148 773.856C119.713 775.538 119.374 777.008 119.12 778.713Z" />
	<path class="color3"
		d="M278.625 781.452C271.903 781.469 221.761 782.259 219.758 781.413C219.537 780.342 219.38 780.598 220.038 779.574C225.874 778.662 232.406 779.245 238.348 779.248C245.976 779.239 292.29 778.328 295.729 779.353L296.013 780.229C295.905 780.343 295.814 780.474 295.691 780.57C293.268 782.463 282.167 781.452 278.625 781.452Z" />
	<path class="color3"
		d="M227.59 790.807C225.506 791.059 222.987 791.587 220.944 790.964C219.929 790.655 219.988 790.096 219.57 789.202C221.529 788.94 224.101 788.506 225.992 789.086C227.073 789.418 227.044 789.879 227.59 790.807Z" />
	<path class="color3"
		d="M299.875 790.9C293.008 791.286 234.645 791.734 231.833 790.669L231.319 789.139C237.276 788.685 296.449 788.565 299.223 789.439L299.875 790.9Z" />
	<path class="color1"
		d="M788.265 826.546C783.164 827.366 778.364 823.897 777.54 818.797C776.716 813.697 780.181 808.894 785.28 808.067C790.385 807.238 795.195 810.707 796.019 815.813C796.844 820.919 793.371 825.725 788.265 826.546ZM785.529 810.585C783.124 811.053 781.156 812.777 780.376 815.099C779.596 817.421 780.124 819.983 781.758 821.808C783.392 823.633 785.881 824.439 788.275 823.918C791.92 823.125 794.248 819.547 793.496 815.893C792.743 812.24 789.19 809.873 785.529 810.585Z" />
	<path class="color2"
		d="M788.275 823.918C785.881 824.439 783.392 823.633 781.758 821.808C780.124 819.983 779.596 817.421 780.376 815.099C781.156 812.777 783.124 811.053 785.529 810.585C789.19 809.873 792.743 812.24 793.496 815.893C794.248 819.547 791.92 823.125 788.275 823.918Z" />
	<path class="color4"
		d="M219.316 811.372L230.788 811.259C243.491 811.064 256.197 811.031 268.901 811.161C268.962 816.436 268.927 821.711 268.796 826.985L257.978 826.959L219.301 826.977L219.316 811.372Z" />
	<path class="color5"
		d="M295.125 817.003C289.675 817.048 279.752 818.173 274.808 816.237C274.49 815.019 274.797 813.877 275.01 812.665C277.159 811.075 298.554 811.808 302.935 811.75C306.253 811.703 319.621 810.849 321.787 812.169C322.07 813.568 321.951 814.644 321.752 816.028C318.713 817.736 299.851 816.971 295.125 817.003Z" />
	<path class="color5"
		d="M321.473 839.472C296.233 839.585 270.991 839.431 245.754 839.009C241.054 838.974 223.615 839.662 220.029 838.774C218.877 837.796 219.047 837.51 218.82 835.989L298.831 836.014C303.017 836.026 317.811 835.26 320.65 836.249C321.576 837.453 321.412 837.985 321.473 839.472Z" />
	<path class="color4"
		d="M218.55 865.814C218.449 860.733 218.516 855.635 218.507 850.552L242.121 850.499C242.124 855.543 242.329 860.682 241.877 865.707C234.111 865.979 226.321 865.843 218.55 865.814Z" />
	<path class="color5"
		d="M263.3 855.445C266.411 854.871 269.522 853.844 272.501 855.312C273.435 856.543 273.485 856.899 273.712 858.444C269.748 857.866 265.831 857.921 261.836 857.937C263.301 857.641 264.837 857.526 266.323 857.349C265.446 856.988 264.759 856.62 264.022 856.031L263.3 855.445Z" />
	<path class="color6"
		d="M253.898 858.21C256.543 856.262 260.147 856.086 263.3 855.445L264.022 856.031C264.759 856.62 265.446 856.988 266.323 857.349C264.837 857.526 263.301 857.641 261.836 857.937C259.144 857.893 256.6 858.555 253.898 858.21Z" />
	<path fill="#F3F3F3"
		d="M253.881 860.504C253.586 859.559 253.722 859.162 253.898 858.21C256.6 858.555 259.144 857.893 261.836 857.937C265.831 857.921 269.748 857.866 273.712 858.444L273.493 859.192L273.763 859.427L273.966 859.765C269.115 860.255 257.508 858.865 253.881 860.504Z" />
	<path class="color5"
		d="M273.763 859.427C283.772 859.656 293.785 859.692 303.795 859.535C309.203 859.499 315.543 858.851 320.834 859.895C321.692 860.974 321.673 861.132 321.778 862.521L321.186 863.356C314.426 864.489 306.521 863.248 299.589 863.58C294.155 863.372 288.688 863.576 283.246 863.447C275.892 863.273 268.622 862.795 261.259 863.059C259.126 863.059 257.068 862.921 254.948 862.684C259.088 862.383 273.006 863.526 275.784 861.748L275.947 860.489L273.966 859.765L273.763 859.427Z" />
	<path class="color7"
		d="M253.881 860.504C257.508 858.865 269.115 860.255 273.966 859.765L275.947 860.489L275.184 861.256L274.528 861.201C267.758 860.686 260.794 861 254 861.029L253.881 860.504Z" />
	<path class="color6"
		d="M275.947 860.489L275.784 861.748C273.006 863.526 259.088 862.383 254.948 862.684L254 861.029C260.794 861 267.758 860.686 274.528 861.201L275.184 861.256L275.947 860.489Z" />
	<path fill="#F3F3F3"
		d="M261.259 863.059C268.622 862.795 275.892 863.273 283.246 863.447C288.688 863.576 294.155 863.372 299.589 863.58C294.34 864.179 277.783 862.701 274.378 865.014C269.375 863.214 261.69 864.2 256.325 864.387C257.718 863.513 259.647 863.357 261.259 863.059Z" />
	<path class="color6"
		d="M274.378 865.014C274.288 865.109 274.215 865.223 274.108 865.297C272.737 866.248 255.573 865.911 253.616 865.249C254.601 864.349 255.038 864.537 256.325 864.387C261.69 864.2 269.375 863.214 274.378 865.014Z" />
</svg>