<?xml version="1.0" encoding="utf-8" ?>
<svg xmlns="http://www.w3.org/2000/svg" xmlns:xlink="http://www.w3.org/1999/xlink" width="1752" height="1752">
	<path fill="#042D46" transform="matrix(1.71094 0 0 1.71094 0.00012207 0)" d="M509.681 36.7822C514.253 36.2306 519.046 36.3954 523.651 36.3946C642.835 36.3751 766.669 89.9554 850.631 174.071C943.237 266.776 994.86 392.706 993.969 523.738C993.938 649.618 944.286 779.51 854.478 868.775C767.571 956.627 649.324 1006.36 525.75 1007.03C511.045 1007.1 496.165 1007.25 481.498 1006.06C395.464 999.077 307.385 967.166 238.533 914.882C161.539 856.792 103.575 777.101 72.0231 685.959C60.9904 653.212 54.0023 619.397 49.3192 585.199C47.605 572.682 46.9099 559.709 46.2224 547.088C45.9329 541.772 45.1741 536.536 45.175 531.197C45.1762 523.593 45.9047 516.228 46.195 508.671C50.1301 406.236 82.9406 305.861 145.279 224.004C213.236 133.492 311.685 70.6668 422.4 47.1578C440.529 43.4739 458.828 40.2546 477.271 38.665C484.33 38.0566 491.484 37.5973 498.562 37.304C501.918 37.165 505.569 37.406 508.872 36.9107L509.681 36.7822Z"/>
	<defs>
		<linearGradient id="gradient_0" gradientUnits="userSpaceOnUse" x1="896.31201" y1="682.37323" x2="433.87061" y2="445.86731">
			<stop offset="0" stop-color="#FFFCF0"/>
			<stop offset="1" stop-color="#EDFDFF"/>
		</linearGradient>
	</defs>
	<path fill="url(#gradient_0)" transform="matrix(1.71094 0 0 1.71094 0.00012207 0)" d="M659.723 129.077C677.738 137.364 695.82 144.751 713.079 154.643C731.93 165.341 749.969 177.409 767.052 190.75C824.814 236.671 873.15 301.493 898.85 370.792C939.167 478.785 934.757 598.397 886.596 703.128C878.26 721.217 868.841 739.168 858.026 755.905C812.221 826.793 742.864 885.327 663.337 914.613C636.607 924.456 609.488 932.156 581.28 936.305C570.241 937.929 559.076 938.408 548.064 939.951C548.789 902.913 557.746 866.201 585.297 839.569C603.641 821.836 628.017 811.217 653.655 811.807C691.741 812.684 731.601 836.764 764.77 805.089C778.748 791.74 782.459 777.139 782.779 758.449C783.028 743.93 781.854 723.375 784.009 709.727C785.418 700.806 793.004 693.574 795.925 684.909C798.957 675.914 799.121 665.728 799.837 656.32C800.131 652.455 800.196 648.003 801.449 644.327C801.939 642.889 802.979 641.572 804.049 640.521C807.808 636.831 813.406 634.494 818.085 632.144C840.373 620.952 864.654 611.873 865.527 582.765C865.704 576.865 864.65 571.12 862.767 565.542C859.491 555.839 854.227 546.546 849.616 537.407C841.229 520.784 832.522 504.308 824.531 487.493C821.731 481.6 817.867 475.43 816.196 469.118C815.587 466.82 815.582 464.536 815.789 462.182C816.302 456.367 818.232 450.447 819.408 444.724C820.881 437.556 821.914 430.192 822.966 422.948C833.682 349.184 811.629 278.239 760.013 224.257C738.081 201.318 714.387 183.033 686.262 168.2C676.932 163.28 666.043 157.68 655.297 157.367C647.637 157.144 639.806 159.963 634.175 165.19C629.399 169.623 626.509 175.549 626.359 182.095C626.229 188.971 628.855 195.613 633.652 200.541C640.583 207.634 650.674 210.477 659.413 214.644C665.009 217.311 670.324 220.371 675.575 223.655C733.633 259.966 772.559 316.857 773.082 386.714C773.194 402.335 771.911 417.935 769.249 433.328C767.321 444.887 763.967 457.024 764.136 468.739C764.216 474.283 764.939 479.653 766.6 484.95C769.778 495.082 775.222 504.683 780.048 514.106C786.865 527.43 793.85 540.668 801.001 553.816C805.451 561.94 810.6 569.959 813.518 578.788C810.176 581.539 806.497 583.537 802.628 585.446C790.54 592.019 770.592 599.365 761.726 609.269C758.087 613.335 755.736 618.329 754.225 623.536C745.793 652.589 761.734 660.171 734.656 685.54C732.103 688.06 732.53 691.26 732.509 694.633L732.601 740.886C732.593 747.965 733.084 755.499 732.364 762.527C732.189 764.244 731.963 766.549 730.678 767.839C728.805 769.719 725.973 769.828 723.489 769.622C722.671 769.554 721.86 769.402 721.056 769.24C720.89 769.229 720.724 769.223 720.558 769.205C715.493 768.646 710.139 766.867 705.187 765.585C694.024 762.695 682.976 759.686 671.991 756.169C653.337 750.197 634.976 743.653 617.086 735.649C561.428 710.748 509.226 673.659 470.695 626.2C484.452 619.404 497.393 611.817 508.209 600.747C526.256 582.397 537.79 558.637 541.043 533.106C542.087 524.376 542.016 515.721 541.909 506.951C540.35 498.926 538.761 490.922 536.248 483.128C528.195 458.318 511.954 436.98 490.185 422.611C482.605 417.578 474.47 413.513 466.392 409.357C471.16 384.179 475.642 359.856 484.323 335.623C487.446 325.679 491.362 316.122 495.383 306.517C510.118 271.319 529.067 239.449 553.399 210.013C577.463 180.833 606.949 156.589 640.229 138.619C646.558 135.237 653.019 131.665 659.723 129.077Z"/>
	<path fill="#8BFDF9" transform="matrix(1.71094 0 0 1.71094 0.00012207 0)" d="M466.392 409.357C471.16 384.179 475.642 359.856 484.323 335.623C495.948 345.407 508.218 354.45 519.936 364.106C526.759 369.728 533.184 375.809 539.931 381.507C542.933 384.042 546.214 386.255 549.168 388.842C595.092 429.008 635.321 475.253 668.741 526.296C679.5 542.166 689.225 558.715 697.853 575.838C699.406 578.861 700.473 582.081 701.968 585.107C703.185 587.572 705.181 589.703 706.238 592.233C708.18 596.88 709.467 601.88 711.258 606.602C713.923 613.631 716.393 620.672 718.961 627.733C720.625 632.308 722.635 636.892 723.949 641.578C725.489 647.075 732.856 683.51 734.656 685.54C732.103 688.06 732.53 691.26 732.509 694.633L732.601 740.886C732.593 747.965 733.084 755.499 732.364 762.527C732.189 764.244 731.963 766.549 730.678 767.839C728.805 769.719 725.973 769.828 723.489 769.622C722.671 769.554 721.86 769.402 721.056 769.24C720.89 769.229 720.724 769.223 720.558 769.205C715.493 768.646 710.139 766.867 705.187 765.585C694.024 762.695 682.976 759.686 671.991 756.169C653.337 750.197 634.976 743.653 617.086 735.649C561.428 710.748 509.226 673.659 470.695 626.2C484.452 619.404 497.393 611.817 508.209 600.747C526.256 582.397 537.79 558.637 541.043 533.106C542.087 524.376 542.016 515.721 541.909 506.951C540.35 498.926 538.761 490.922 536.248 483.128C528.195 458.318 511.954 436.98 490.185 422.611C482.605 417.578 474.47 413.513 466.392 409.357Z"/>
	<path fill="#6DCBD0" transform="matrix(1.71094 0 0 1.71094 0.00012207 0)" d="M541.909 506.951C580.787 552.854 608.879 605.921 639.425 657.369C649.807 674.541 660.564 691.484 671.689 708.185C683.095 725.37 694.538 739.588 707.833 755.282C709.842 757.653 720.662 768.279 721.056 769.24C720.89 769.229 720.724 769.223 720.558 769.205C715.493 768.646 710.139 766.867 705.187 765.585C694.024 762.695 682.976 759.686 671.991 756.169C653.337 750.197 634.976 743.653 617.086 735.649C561.428 710.748 509.226 673.659 470.695 626.2C484.452 619.404 497.393 611.817 508.209 600.747C526.256 582.397 537.79 558.637 541.043 533.106C542.087 524.376 542.016 515.721 541.909 506.951Z"/>
	<path fill="#BDFCFB" transform="matrix(1.71094 0 0 1.71094 0.00012207 0)" d="M553.399 210.013C553.887 210.877 554.441 212.287 555.082 212.996C556.652 214.731 567.628 218.471 570.556 220.067C574.132 222.018 577.51 224.325 581.09 226.27C585.257 228.535 589.593 230.422 593.636 232.921C602.426 238.352 610.838 244.5 619.175 250.599C634.871 262.084 647.82 273.322 662.012 286.506C667.442 291.55 673 296.245 678.003 301.746C684.243 308.608 689.532 316.076 695.327 323.274C698.03 326.632 701.473 329.507 703.939 333.038C708.84 340.056 713.073 347.545 717.437 354.898C732.643 380.515 746.716 407.921 750.285 437.958C751.209 445.731 751.011 453.62 751.473 461.429C752.185 473.471 754.393 485.218 757.628 496.834C758.718 500.748 760.326 504.528 761.682 508.357C763.084 512.318 764.037 516.44 765.578 520.351C768.178 526.949 771.65 533.255 774.842 539.579C776.961 543.777 778.765 548.043 781.141 552.122C785.03 558.795 789.4 565.044 793.519 571.559C795.461 574.631 797.139 577.909 799.164 580.921C800.231 582.508 801.575 583.815 802.628 585.446C790.54 592.019 770.592 599.365 761.726 609.269C758.087 613.335 755.736 618.329 754.225 623.536C745.793 652.589 761.734 660.171 734.656 685.54C732.856 683.51 725.489 647.075 723.949 641.578C722.635 636.892 720.625 632.308 718.961 627.733C716.393 620.672 713.923 613.631 711.258 606.602C709.467 601.88 708.18 596.88 706.238 592.233C705.181 589.703 703.185 587.572 701.968 585.107C700.473 582.081 699.406 578.861 697.853 575.838C689.225 558.715 679.5 542.166 668.741 526.296C635.321 475.253 595.092 429.008 549.168 388.842C546.214 386.255 542.933 384.042 539.931 381.507C533.184 375.809 526.759 369.728 519.936 364.106C508.218 354.45 495.948 345.407 484.323 335.623C487.446 325.679 491.362 316.122 495.383 306.517C510.118 271.319 529.067 239.449 553.399 210.013Z"/>
	<defs>
		<linearGradient id="gradient_1" gradientUnits="userSpaceOnUse" x1="274.80331" y1="611.84357" x2="603.16016" y2="408.66992">
			<stop offset="0" stop-color="#3E7286"/>
			<stop offset="1" stop-color="#5C9EA9"/>
		</linearGradient>
	</defs>
	<path fill="url(#gradient_1)" transform="matrix(1.71094 0 0 1.71094 0.00012207 0)" d="M458.238 187.654C462.853 186.449 467.825 185.919 472.538 185.124C466.907 190.902 460.103 197.157 455.786 203.968C454.352 205.537 452.153 208.547 450.361 209.546C446.93 214.733 442.688 219.502 439.459 224.773C427.933 243.589 418.39 269.117 415.669 291.093C421.799 295.999 427.696 300.695 434.55 304.566C430.34 315.264 426.549 326.122 423.187 337.116C421.333 343.209 419.861 349.537 417.797 355.548C414.452 372.313 409.388 388.289 407.59 405.425C383.394 406.221 356.257 422.393 340.099 439.721C326.671 453.928 316.994 471.257 311.944 490.143C304.608 522.263 309.18 552.844 326.741 580.8C337.632 598.137 354.274 613.827 372.796 622.704C378.59 625.482 385.253 627.186 390.833 630.185C395.034 631.579 405.677 633.378 408.536 635.986C412.555 639.652 415.668 645.458 419.003 649.809C426.545 659.653 434.413 669.243 442.595 678.562C470.283 709.531 502.726 737.33 538.657 758.269C550.224 765.011 562.21 770.538 574.065 776.668C576.435 777.101 578.902 778.696 581.075 779.768C574.319 784.403 566.994 787.995 560.491 793.029C537.041 811.181 519.33 837.375 508.816 865C505.579 873.503 503.288 882.218 500.572 890.886C489.465 881.486 478.074 866.121 467.856 855.195C436.806 821.993 393.854 788.704 348.761 778.289C348.642 772.868 348.668 767.357 348.052 761.968C344.16 727.947 327.507 704.638 305.374 680.122C296.746 670.565 287.874 661.358 280.09 651.056C248.846 609.706 229.989 564.395 224.548 512.72C223.975 505.707 223.049 498.737 222.547 491.703C217.073 414.961 240.544 338.175 291.128 279.899C326.394 238.542 373.369 208.849 425.856 194.737C436.131 191.893 447.581 188.412 458.238 187.654Z"/>
	<path fill="#36657A" transform="matrix(1.71094 0 0 1.71094 0.00012207 0)" d="M224.548 512.72C225.597 513.489 226.4 514.193 226.928 515.409C229.16 520.546 230.475 526.34 232.315 531.653C236.527 543.814 241.539 556.809 247.873 568.028C253.413 577.84 258.932 587.92 265.089 597.363C278.584 618.06 294.91 637.424 311.386 655.783C320.377 665.801 332.881 674.011 340.078 685.352C350.8 690.378 359.791 699.802 369.186 706.993C377.689 713.5 387.168 719.782 396.272 725.417C402.169 729.068 408.599 732.067 414.757 735.265C423.921 740.026 433.113 744.861 442.663 748.811C469.917 760.083 499.363 766.844 528.299 772.019C534.597 773.146 551.421 776.112 556.976 774.618C557.374 774.511 557.868 774.244 558.218 774.081C558.299 774.043 558.381 774.009 558.463 773.973C561.747 775.017 570.235 778.2 573.578 776.938C573.751 776.872 573.902 776.758 574.065 776.668C576.435 777.101 578.902 778.696 581.075 779.768C574.319 784.403 566.994 787.995 560.491 793.029C537.041 811.181 519.33 837.375 508.816 865C505.579 873.503 503.288 882.218 500.572 890.886C489.465 881.486 478.074 866.121 467.856 855.195C436.806 821.993 393.854 788.704 348.761 778.289C348.642 772.868 348.668 767.357 348.052 761.968C344.16 727.947 327.507 704.638 305.374 680.122C296.746 670.565 287.874 661.358 280.09 651.056C248.846 609.706 229.989 564.395 224.548 512.72Z"/>
	<path fill="#6DCBD0" transform="matrix(1.71094 0 0 1.71094 0.00012207 0)" d="M431.411 217.334C437.532 214.452 443.75 211.131 450.361 209.546C446.93 214.733 442.688 219.502 439.459 224.773C427.933 243.589 418.39 269.117 415.669 291.093C421.799 295.999 427.696 300.695 434.55 304.566C430.34 315.264 426.549 326.122 423.187 337.116C421.333 343.209 419.861 349.537 417.797 355.548C414.452 372.313 409.388 388.289 407.59 405.425C383.394 406.221 356.257 422.393 340.099 439.721C326.671 453.928 316.994 471.257 311.944 490.143C310.001 484.743 309.226 478.441 308.088 472.801C300.931 437.337 301.321 400.45 311.551 365.573C330.494 302.341 373.546 249.096 431.411 217.334Z"/>
	<path fill="#8BFDF9" transform="matrix(1.71094 0 0 1.71094 0.00012207 0)" d="M417.797 355.548L416.968 355.979L416.333 355.356C412.805 334.097 412.581 312.421 415.669 291.093C421.799 295.999 427.696 300.695 434.55 304.566C430.34 315.264 426.549 326.122 423.187 337.116C421.333 343.209 419.861 349.537 417.797 355.548Z"/>
	<path fill="#6DCBD0" transform="matrix(1.71094 0 0 1.71094 0.00012207 0)" d="M390.833 630.185C395.034 631.579 405.677 633.378 408.536 635.986C412.555 639.652 415.668 645.458 419.003 649.809C426.545 659.653 434.413 669.243 442.595 678.562C470.283 709.531 502.726 737.33 538.657 758.269C550.224 765.011 562.21 770.538 574.065 776.668C573.902 776.758 573.751 776.872 573.578 776.938C570.235 778.2 561.747 775.017 558.463 773.973C550.647 769.769 541.796 767.471 533.792 763.618C517.203 755.632 501.546 744.685 486.798 733.737C454.233 709.563 424.048 680.052 400.585 646.908C397.402 642.411 391.642 635.63 390.833 630.185Z"/>
	<path fill="#71ACB4" transform="matrix(1.71094 0 0 1.71094 0.00012207 0)" d="M458.238 187.654C462.853 186.449 467.825 185.919 472.538 185.124C466.907 190.902 460.103 197.157 455.786 203.968C454.352 205.537 452.153 208.547 450.361 209.546C443.75 211.131 437.532 214.452 431.411 217.334C431.538 217.193 431.669 217.055 431.794 216.912C435.948 212.169 444.328 211.975 449.481 208.711C452.248 206.958 465.9 191.221 466.377 188.59C466.527 187.765 466.452 187.98 465.963 187.201C463.827 187.505 461.198 188.15 459.067 187.807C458.789 187.763 458.514 187.705 458.238 187.654Z"/>
	<path fill="#F9FBF3" transform="matrix(1.71094 0 0 1.71094 0.00012207 0)" d="M472.538 185.124C479.958 180.672 486.463 175.525 488.701 166.66C490.349 160.133 489.114 152.611 485.579 146.903C482.019 141.155 475.835 137.002 469.204 135.688C460.592 133.981 450.082 136.14 441.473 137.499C392.924 145.49 346.81 164.357 306.582 192.687C254.813 229.052 213.504 284.172 190.865 343.097C182.149 365.783 176.011 389.969 171.875 413.895C155.86 503.304 175.952 595.414 227.746 670.031C236.717 682.835 246.616 694.963 257.363 706.317C264.744 714.195 273.182 721.778 279.844 730.243C295.608 750.272 298.698 775.959 294.603 800.505C291.909 816.649 286.121 831.019 276.936 844.593C275.455 846.782 273.063 850.744 270.74 852.062C270.072 852.441 270.04 852.41 269.402 852.559C262.768 849.704 251.2 838.309 245.547 832.955C201.085 790.469 166.369 738.844 143.794 681.641C101.367 575.589 103.159 456.966 148.769 352.243C191.941 250.31 274.321 170.041 377.341 129.531C442.163 104.27 512.566 96.8283 581.235 107.978C574.632 113.047 567.777 117.828 561.285 123.029C541.386 138.783 523.302 156.703 507.366 176.457C501.098 184.153 495.051 192.028 489.235 200.071C486.032 204.469 483.063 209.264 479.538 213.397L479.14 214.196C475 222.382 469.376 229.957 464.863 237.969C452.748 259.197 442.602 281.489 434.55 304.566C427.696 300.695 421.799 295.999 415.669 291.093C418.39 269.117 427.933 243.589 439.459 224.773C442.688 219.502 446.93 214.733 450.361 209.546C452.153 208.547 454.352 205.537 455.786 203.968C460.103 197.157 466.907 190.902 472.538 185.124Z"/>
	<path fill="#BDFCFB" transform="matrix(1.71094 0 0 1.71094 0.00012207 0)" d="M450.361 209.546C452.153 208.547 454.352 205.537 455.786 203.968C455.706 204.251 455.634 204.536 455.546 204.816C454.402 208.445 443.458 220.402 440.495 225.006C430.539 240.478 424.323 258.85 419.545 276.484C418.43 280.596 416.426 285.714 417.188 289.955C419.109 292.432 421.509 294.385 423.88 296.409C426.287 298.465 431.519 299.644 434.656 299.975C438.076 295.122 440.329 284.882 443.061 278.874C450.793 261.764 459.463 245.095 469.031 228.94C472.094 223.751 475.028 218.286 478.597 213.433L479.538 213.397L479.14 214.196C475 222.382 469.376 229.957 464.863 237.969C452.748 259.197 442.602 281.489 434.55 304.566C427.696 300.695 421.799 295.999 415.669 291.093C418.39 269.117 427.933 243.589 439.459 224.773C442.688 219.502 446.93 214.733 450.361 209.546Z"/>
	<path fill="#F9FBF3" transform="matrix(1.71094 0 0 1.71094 0.00012207 0)" d="M417.466 453.265C454.096 449.006 487.235 475.268 491.459 511.902C495.682 548.536 469.388 581.65 432.75 585.838C396.162 590.021 363.103 563.77 358.885 527.186C354.668 490.602 380.886 457.518 417.466 453.265Z"/>
	<path fill="#042D46" transform="matrix(1.71094 0 0 1.71094 0.00012207 0)" d="M419.464 482.851C439.691 479.527 458.771 493.261 462.041 513.497C465.31 533.732 451.525 552.776 431.281 555.992C411.113 559.195 392.157 545.473 388.9 525.314C385.643 505.155 399.314 486.162 419.464 482.851Z"/>
</svg>
